<?xml version="1.0" encoding="UTF-8" standalone="no"?>
<svg
   xmlns:dc="http://purl.org/dc/elements/1.1/"
   xmlns:cc="http://creativecommons.org/ns#"
   xmlns:rdf="http://www.w3.org/1999/02/22-rdf-syntax-ns#"
   xmlns:svg="http://www.w3.org/2000/svg"
   xmlns="http://www.w3.org/2000/svg"
   xmlns:sodipodi="http://sodipodi.sourceforge.net/DTD/sodipodi-0.dtd"
   xmlns:inkscape="http://www.inkscape.org/namespaces/inkscape"
   version="1.1"
   id="svg2"
   width="184.38689"
   height="52.272709"
   viewBox="0 0 184.38688 52.272709"
   sodipodi:docname="Horizontal.svg"
   inkscape:version="1.0.1 (3bc2e813f5, 2020-09-07)">
  <metadata
     id="metadata8">
    <rdf:RDF>
      <cc:Work
         rdf:about="">
        <dc:format>image/svg+xml</dc:format>
        <dc:type
           rdf:resource="http://purl.org/dc/dcmitype/StillImage" />
        <dc:title></dc:title>
      </cc:Work>
    </rdf:RDF>
  </metadata>
  <defs
     id="defs6" />
  <sodipodi:namedview
     pagecolor="#ffffff"
     bordercolor="#666666"
     borderopacity="1"
     objecttolerance="10"
     gridtolerance="10"
     guidetolerance="10"
     inkscape:pageopacity="0"
     inkscape:pageshadow="2"
     inkscape:window-width="1920"
     inkscape:window-height="1051"
     id="namedview4"
     showgrid="false"
     fit-margin-top="0"
     fit-margin-left="0"
     fit-margin-right="0"
     fit-margin-bottom="0"
     inkscape:zoom="6.2225397"
     inkscape:cx="78.636824"
     inkscape:cy="24.792627"
     inkscape:window-x="-9"
     inkscape:window-y="-9"
     inkscape:window-maximized="1"
     inkscape:current-layer="layer1"
     inkscape:document-rotation="0" />
  <g
     inkscape:groupmode="layer"
     id="layer1"
     inkscape:label="bezier"
     style="display:inline"
     transform="translate(-9.2934795,-73.361192)">
    <g
       aria-label="AGILA"
       id="text844"
       style="font-style:normal;font-weight:normal;font-size:27.105px;line-height:1.25;font-family:sans-serif;fill:#3a4a53;fill-opacity:1;stroke:none;stroke-width:1.12937"
       transform="translate(7.8745982,1.4463547)">
      <path
         d="M 114.33751,114.48858 V 98.606749 q 0,-4.632202 4.6322,-4.632202 h 4.10281 q 4.6322,0 4.6322,4.632202 v 14.690701 l -2.51462,1.19113 h -0.13235 v -9.31734 h -8.07327 v 8.12621 l -2.51462,1.19113 z m 2.64697,-11.72608 h 8.07327 v -4.155751 q 0,-2.249926 -1.98523,-2.249926 h -4.10281 q -1.98523,0 -1.98523,2.249926 z"
         style="font-style:normal;font-variant:normal;font-weight:normal;font-stretch:normal;font-size:27.105px;font-family:'Nova Square';-inkscape-font-specification:'Nova Square';fill:#3a4a53;fill-opacity:1;stroke-width:1.12937"
         id="path844" />
      <path
         d="m 137.63087,113.95919 q -4.6322,0 -4.6322,-4.6322 V 98.606749 q 0,-4.632202 4.6322,-4.632202 h 4.10281 q 4.6322,0 4.6322,4.632202 v 1.455831 l -2.51463,1.19114 h -0.13234 v -2.646971 q 0,-2.249926 -1.98523,-2.249926 h -4.10281 q -1.98523,0 -1.98523,2.249926 v 10.720241 q 0,2.24993 1.98523,2.24993 h 4.10281 q 1.98523,0 1.98523,-2.24993 v -4.15575 h -4.60574 v -0.13235 l 1.07203,-2.27639 h 6.18068 v 6.56449 q 0,4.6322 -4.6322,4.6322 z"
         style="font-style:normal;font-variant:normal;font-weight:normal;font-stretch:normal;font-size:27.105px;font-family:'Nova Square';-inkscape-font-specification:'Nova Square';fill:#3a4a53;fill-opacity:1;stroke-width:1.12937"
         id="path846" />
      <path
         d="M 151.65982,114.48858 V 94.63629 l 2.51463,-1.191137 h 0.13235 v 19.852297 l -2.51463,1.19113 z"
         style="font-style:normal;font-variant:normal;font-weight:normal;font-stretch:normal;font-size:27.105px;font-family:'Nova Square';-inkscape-font-specification:'Nova Square';fill:#3a4a53;fill-opacity:1;stroke-width:1.12937"
         id="path848" />
      <path
         d="m 159.60074,113.95919 v -19.3229 l 2.51463,-1.191137 h 0.13234 v 18.105297 h 9.06589 v 0.13234 l -1.07203,2.2764 z"
         style="font-style:normal;font-variant:normal;font-weight:normal;font-stretch:normal;font-size:27.105px;font-family:'Nova Square';-inkscape-font-specification:'Nova Square';fill:#3a4a53;fill-opacity:1;stroke-width:1.12937"
         id="path850" />
      <path
         d="M 172.43856,114.48858 V 98.606749 q 0,-4.632202 4.6322,-4.632202 h 4.10281 q 4.6322,0 4.6322,4.632202 v 14.690701 l -2.51462,1.19113 h -0.13235 v -9.31734 h -8.07327 v 8.12621 l -2.51462,1.19113 z m 2.64697,-11.72608 h 8.07327 v -4.155751 q 0,-2.249926 -1.98523,-2.249926 h -4.10281 q -1.98523,0 -1.98523,2.249926 z"
         style="font-style:normal;font-variant:normal;font-weight:normal;font-stretch:normal;font-size:27.105px;font-family:'Nova Square';-inkscape-font-specification:'Nova Square';fill:#3a4a53;fill-opacity:1;stroke-width:1.12937"
         id="path852" />
    </g>
    <path
       style="display:inline;fill:#e8a348;fill-opacity:1;stroke:none;stroke-width:0.969982px;stroke-linecap:butt;stroke-linejoin:miter;stroke-opacity:1"
       d="M 9.2934795,75.795108 15.466431,94.97326 32.993208,107.97914 51.291598,105.55432 21.529152,91.336025 Z"
       id="path1996" />
    <path
       style="display:inline;fill:#e8a348;fill-opacity:1;stroke:none;stroke-width:1px;stroke-linecap:butt;stroke-linejoin:miter;stroke-opacity:1"
       d="m 67.830508,106.31574 -36.53409,4.14773 -7.727277,3.23863 1.818181,1.98864 0.681819,-0.85227 22.840907,0.39772 z"
       id="path1998" />
    <path
       style="display:inline;fill:#e8a348;fill-opacity:1;stroke:none;stroke-width:1px;stroke-linecap:butt;stroke-linejoin:miter;stroke-opacity:1"
       d="m 53.057778,115.63392 15.96591,-0.73864 29.14773,-9.0909 25.000002,-32.443188 -29.545462,24.488636 z"
       id="path2000" />
    <path
       style="display:inline;fill:#e8a348;fill-opacity:1;stroke:none;stroke-width:1px;stroke-linecap:butt;stroke-linejoin:miter;stroke-opacity:1"
       d="m 72.887328,115.23619 21.53409,-4.31818 16.193182,-9.31818 -14.829552,13.52273 z"
       id="path2002" />
    <path
       style="display:inline;fill:#3a4a53;fill-opacity:1;stroke:none;stroke-width:1px;stroke-linecap:butt;stroke-linejoin:miter;stroke-opacity:1"
       d="m 38.682778,117.16801 30.73864,-0.68182 21.02272,2.84091 -6.02272,3.80682 -9.54546,-3.86364 -1.875,0.39773 8.80682,3.97727 -4.65909,1.36364 -5.51136,-5.11364 h -1.81819 l 4.48864,5.68182 -4.82955,0.0568 -0.68181,-5.68182 h -0.625 l -1.64773,5.11364 -3.57955,-2.67046 2.67046,-2.32954 -13.06818,1.02273 z"
       id="path2004" />
  </g>
</svg>
