<svg xmlns="http://www.w3.org/2000/svg" width="164.864" height="37.128" viewBox="0 0 164.864 37.128">
  <path id="logo-11" d="M31.941,74.3H69.069V37.175H31.941ZM61.923,52.167H54.078V44.321h7.845ZM39.086,44.321h7.85v14.99H61.923v7.845H39.086Zm54.161-7.146a18.564,18.564,0,1,0,18.564,18.564A18.564,18.564,0,0,0,93.247,37.175Zm0,29.982a11.418,11.418,0,1,1,11.418-11.418A11.418,11.418,0,0,1,93.247,67.157Zm85-29.982A18.564,18.564,0,1,0,196.8,55.739,18.564,18.564,0,0,0,178.242,37.175Zm0,29.982A11.418,11.418,0,1,1,189.658,55.74,11.418,11.418,0,0,1,178.242,67.157Zm-42.5-29.982a18.564,18.564,0,1,0,18.564,18.564,18.564,18.564,0,0,0-18.564-18.564Zm0,29.982a11.418,11.418,0,1,1,10.839-14.99H135.744v7.145h10.839A11.435,11.435,0,0,1,135.744,67.157Z" transform="translate(-31.941 -37.175)" fill="#fff"/>
</svg>
