<svg xmlns="http://www.w3.org/2000/svg" width="249.533" height="49.055" viewBox="0 0 249.533 49.055">
  <g id="logo-8" transform="translate(-21.07 -36.668)">
    <path id="Path_284" data-name="Path 284" d="M49.612,49.278a6.726,6.726,0,0,0-1.924,5.388l-.033-.033a7.991,7.991,0,0,1-8.635,8.635l.033.033a6.766,6.766,0,1,0,6.109,6.1l.035.033A7.991,7.991,0,0,1,53.833,60.8L53.8,60.77a6.753,6.753,0,1,0-4.18-11.492Z" transform="translate(8.891 8.919)" fill="#fff"/>
    <path id="Path_285" data-name="Path 285" d="M44.162,67.091l-.035-.033a6.68,6.68,0,0,0,7.316-7.311l.035.033a7.991,7.991,0,0,1,8.635-8.635l-.035-.033a6.766,6.766,0,1,0-6.1-6.1l-.033-.035a7.989,7.989,0,0,1-8.635,8.635l.033.035a6.68,6.68,0,0,0-7.316,7.311l-.033-.033a7.993,7.993,0,0,1-8.635,8.635l.033.033a6.766,6.766,0,1,0,6.1,6.1l.035.033a7.991,7.991,0,0,1,8.635-8.635Z" transform="translate(0.772 0.791)" fill="#fff"/>
    <path id="Path_286" data-name="Path 286" d="M32.6,64.19A6.718,6.718,0,0,0,34.527,58.8l.035.033A7.991,7.991,0,0,1,43.2,50.2l-.035-.033a6.764,6.764,0,1,0-6.1-6.1l-.033-.033a7.991,7.991,0,0,1-8.635,8.635l.033.033A6.753,6.753,0,1,0,32.608,64.19Z" transform="translate(0 0)" fill="#fff"/>
    <path id="Path_287" data-name="Path 287" d="M58.317,41.655h5.464V68.243H58.317Z" transform="translate(31.272 4.187)" fill="#fff"/>
    <path id="Path_288" data-name="Path 288" d="M62.969,55.582A9.652,9.652,0,1,1,72.621,65.2a9.544,9.544,0,0,1-9.652-9.614Zm13.841,0a4.191,4.191,0,1,0-4.189,4.306,4.086,4.086,0,0,0,4.189-4.306Z" transform="translate(35.178 7.743)" fill="#fff"/>
    <path id="Path_289" data-name="Path 289" d="M94.245,46.447V63.739c0,6.118-4.772,8.7-9.616,8.7A9.312,9.312,0,0,1,76,68.029l4.661-2.695a4.161,4.161,0,0,0,4.152,2.294,3.63,3.63,0,0,0,4.115-3.9V62.067a6.468,6.468,0,0,1-5.318,2.368,9.255,9.255,0,0,1,0-18.5A6.468,6.468,0,0,1,88.927,48.3V46.443Zm-5.316,8.74a4.415,4.415,0,1,0-4.406,4.231,4.121,4.121,0,0,0,4.406-4.231Z" transform="translate(44.981 7.773)" fill="#fff"/>
    <path id="Path_290" data-name="Path 290" d="M86.982,55.582A9.652,9.652,0,1,1,96.634,65.2a9.544,9.544,0,0,1-9.652-9.614Zm13.841,0a4.191,4.191,0,1,0-4.189,4.306,4.086,4.086,0,0,0,4.189-4.306Z" transform="translate(55.339 7.743)" fill="#fff"/>
    <path id="Path_291" data-name="Path 291" d="M98.861,45.052a3.278,3.278,0,1,1,3.278,3.278A3.311,3.311,0,0,1,98.861,45.052Zm.552,4.88h5.465V68.144H99.406Z" transform="translate(65.312 4.287)" fill="#fff"/>
    <path id="Path_292" data-name="Path 292" d="M123.9,55.552a9.145,9.145,0,0,1-8.7,9.614,6.834,6.834,0,0,1-5.425-2.222v9H104.3V46.446h5.464v1.711a6.838,6.838,0,0,1,5.425-2.22,9.143,9.143,0,0,1,8.7,9.616Zm-5.464,0a4.334,4.334,0,1,0-4.332,4.443,4.157,4.157,0,0,0,4.332-4.443Z" transform="translate(69.883 7.773)" fill="#fff"/>
    <path id="Path_293" data-name="Path 293" d="M131.152,59.19c0,4.189-3.641,5.973-7.574,5.973a7.975,7.975,0,0,1-7.831-4.334l4.733-2.695a2.993,2.993,0,0,0,3.09,2.149c1.31,0,1.967-.4,1.967-1.128,0-2.005-8.961-.947-8.961-7.248,0-3.972,3.352-5.973,7.139-5.973a7.963,7.963,0,0,1,7.1,3.9l-4.661,2.513a2.644,2.644,0,0,0-2.439-1.6c-.947,0-1.531.368-1.531,1.019C122.193,53.837,131.152,52.451,131.152,59.19Z" transform="translate(79.49 7.776)" fill="#fff"/>
    <path id="Path_294" data-name="Path 294" d="M142.946,46.209V64.421h-5.464V62.708a6.221,6.221,0,0,1-5.206,2.222c-3.679,0-6.806-2.621-6.806-7.542V46.209h5.464V56.588A3,3,0,0,0,134.1,59.9c2,0,3.387-1.164,3.387-3.751V46.215Z" transform="translate(87.653 8.011)" fill="#fff"/>
    <path id="Path_295" data-name="Path 295" d="M164.467,53.48V64.661H159V53.953c0-1.821-.874-2.986-2.621-2.986-1.821,0-2.842,1.275-2.842,3.423v10.27h-5.462V53.953c0-1.821-.874-2.986-2.623-2.986-1.821,0-2.84,1.275-2.84,3.423v10.27h-5.464V46.449h5.464v1.674a5.59,5.59,0,0,1,4.88-2.184,5.418,5.418,0,0,1,4.77,2.4,6,6,0,0,1,5.281-2.4C161.728,45.941,164.467,48.927,164.467,53.48Z" transform="translate(97.46 7.769)" fill="#fff"/>
    <circle id="Ellipse_44" data-name="Ellipse 44" cx="4.054" cy="4.054" r="4.054" transform="translate(262.494 45.998)" fill="#fff"/>
  </g>
</svg>
