<svg xmlns="http://www.w3.org/2000/svg" width="204.292" height="45.673" viewBox="0 0 204.292 45.673">
  <g id="logo-10" transform="translate(-10.427 -30.047)">
    <path id="Path_255" data-name="Path 255" d="M10.427,30.047V75.72H214.719V30.047Zm201.716,43.1H107.792V32.624h104.35Z" fill="#fff"/>
    <path id="Path_256" data-name="Path 256" d="M18.856,57.111V41.926H24.1V53.067h9.245v4.044Z" transform="translate(2.43 3.424)" fill="#5d7589"/>
    <path id="Path_257" data-name="Path 257" d="M50.7,49.49c0,4.835-3.017,7.931-10.194,7.931-6.519,0-10.213-2.669-10.213-7.931,0-4.662,3.522-7.834,10.213-7.834C47.306,41.656,50.7,44.577,50.7,49.49Zm-5.261.058c0-2.19-.91-3.946-4.952-3.946-3.695,0-4.9,1.567-4.9,3.946,0,2.418,1.1,3.985,4.912,3.985,3.835,0,4.935-1.663,4.935-3.985Z" transform="translate(5.728 3.347)" fill="#5d7589"/>
    <path id="Path_258" data-name="Path 258" d="M62.087,57.171,61.951,55.7a9.276,9.276,0,0,1-6.036,1.7c-3.23,0-5.92-.967-7.428-2.921a7.987,7.987,0,0,1-1.431-4.875,7.551,7.551,0,0,1,1.475-4.74c1.527-1.9,4.294-3.152,8.414-3.152,4.74,0,7.525,1.451,8.723,3.888a5.2,5.2,0,0,1,.446,1.818H61.1a2.061,2.061,0,0,0-.676-.967,5.331,5.331,0,0,0-3.386-.87A4.986,4.986,0,0,0,53.131,46.8a4.2,4.2,0,0,0-.792,2.843,4.3,4.3,0,0,0,.734,2.727,5.082,5.082,0,0,0,4,1.335,5.591,5.591,0,0,0,3.985-1.238,2.43,2.43,0,0,0,.483-1.031h-5.4V48.177h10.1v8.995Z" transform="translate(10.558 3.364)" fill="#5d7589"/>
    <path id="Path_259" data-name="Path 259" d="M83.5,49.49c0,4.835-3.018,7.931-10.194,7.931-6.519,0-10.213-2.669-10.213-7.931,0-4.662,3.522-7.834,10.213-7.834C80.095,41.656,83.5,44.577,83.5,49.49Zm-5.261.058c0-2.19-.91-3.946-4.952-3.946-3.695,0-4.9,1.567-4.9,3.946,0,2.418,1.1,3.985,4.912,3.985,3.834,0,4.935-1.663,4.935-3.985Z" transform="translate(15.182 3.347)" fill="#5d7589"/>
    <path id="Path_260" data-name="Path 260" d="M92.857,57.066V41.881h3.736V57.066Z" transform="translate(23.763 3.411)" fill="#fff"/>
    <path id="Path_261" data-name="Path 261" d="M114.1,50.729c-.947,1.238-2.577,1.8-4.874,1.818-.484,0-6.906-.019-6.906-.019v4.546H98.667V41.889h10.564a6.064,6.064,0,0,1,4.7,1.528,5.6,5.6,0,0,1,1.141,3.811,5.473,5.473,0,0,1-.969,3.5Zm-3-4.951c-.386-.58-1.22-.9-2.631-.9H102.3V49.5h6.131c1.509,0,2.3-.309,2.671-.91a2.515,2.515,0,0,0,.271-1.373A2.936,2.936,0,0,0,111.105,45.778Z" transform="translate(25.437 3.404)" fill="#fff"/>
    <path id="Path_262" data-name="Path 262" d="M121.777,57.35c-6.887,0-8.995-2.577-8.995-5.126h3.907c0,1.257,1.721,2.206,5.261,2.206,3.52,0,4.448-.62,4.448-1.626,0-1.122-.7-1.47-3.965-1.837-.644-.058-2.4-.271-3.056-.367-4.638-.523-6.423-1.9-6.423-4.353,0-2.592,2.613-4.545,8.28-4.545,6.152,0,8.512,2.418,8.512,4.933h-3.865c0-1.277-1.451-2.012-4.875-2.012-3.521,0-4.275.483-4.275,1.431,0,.987.773,1.3,4.509,1.74.852.117,2.747.33,3.268.386,3.947.406,5.726,1.837,5.726,4.371C130.229,55.569,127.521,57.35,121.777,57.35Z" transform="translate(29.506 3.36)" fill="#fff"/>
    <path id="Path_263" data-name="Path 263" d="M136.735,57.278c-5.047,0-8.336-1.993-8.336-6.184V41.881h3.693v9.265c0,1.916,1.568,3.191,4.8,3.191,2.921,0,4.662-1.2,4.662-3.191V41.881h3.656v9.558C145.208,55.248,142.151,57.278,136.735,57.278Z" transform="translate(34.008 3.411)" fill="#fff"/>
    <path id="Path_264" data-name="Path 264" d="M160.661,57.066V46.93l-4.74,10.136h-3.6l-4.6-10.136V57.066h-3.478V41.881h4.713l5.223,11.567,5.339-11.567h4.638V57.066Z" transform="translate(38.576 3.411)" fill="#fff"/>
  </g>
</svg>
