<svg xmlns="http://www.w3.org/2000/svg" width="165.341" height="84.726" viewBox="0 0 165.341 84.726">
  <g id="logo-3" transform="translate(-101.557 0.815)">
    <path id="Path_274" data-name="Path 274" d="M70.211,68.886a5.334,5.334,0,0,1-3.361-.966,3.14,3.14,0,0,1-1.268-2.637V46.626a.523.523,0,0,1,.584-.584h3.381c.382,0,.564.2.564.584V63.834c0,.765.342,1.147,1.047,1.147a2.9,2.9,0,0,0,.886-.1c.4,0,.624.121.644.483l.3,2.516a.523.523,0,0,1-.483.624,7.587,7.587,0,0,1-2.294.382Z" transform="translate(35.979 7.952)" fill="#fff"/>
    <path id="Path_275" data-name="Path 275" d="M84.579,63.108a9.48,9.48,0,0,1-12.076,0,8.051,8.051,0,0,1,0-11.331,9.52,9.52,0,0,1,12.076,0,8.171,8.171,0,0,1,0,11.311Zm-8.9-2.657a4.287,4.287,0,0,0,5.756,0,4.508,4.508,0,0,0,0-5.917,4.287,4.287,0,0,0-5.756,0,4.508,4.508,0,0,0,0,5.917Z" transform="translate(40.631 11.577)" fill="#fff"/>
    <path id="Path_276" data-name="Path 276" d="M95.846,50.105c.382,0,.564.2.564.584V65.12a6.561,6.561,0,0,1-2.234,5.173,8.453,8.453,0,0,1-5.857,2.013,9.419,9.419,0,0,1-5.454-1.51,6.038,6.038,0,0,1-2.637-4.025c0-.4,0-.584.543-.584h3.381a.745.745,0,0,1,.664.463,2.637,2.637,0,0,0,1.228,1.429A4.71,4.71,0,0,0,88.3,68.6a3.562,3.562,0,0,0,2.6-.926,3.422,3.422,0,0,0,.946-2.516V63.892A6.742,6.742,0,0,1,87.654,65.2a7.809,7.809,0,0,1-5.716-2.194,8.051,8.051,0,0,1,0-11.191,7.87,7.87,0,0,1,5.716-2.174,6.763,6.763,0,0,1,4.287,1.389v-.322a.523.523,0,0,1,.564-.584ZM88.037,61.618a3.542,3.542,0,0,0,2.757-1.187,4.931,4.931,0,0,0,0-6.038,3.522,3.522,0,0,0-2.737-1.167,3.623,3.623,0,0,0-2.8,1.187,4.267,4.267,0,0,0-1.087,3.019,4.348,4.348,0,0,0,1.067,3A3.643,3.643,0,0,0,88.037,61.618Z" transform="translate(50.255 11.597)" fill="#fff"/>
    <path id="Path_277" data-name="Path 277" d="M103.841,63.105a9.52,9.52,0,0,1-12.076,0,8.192,8.192,0,0,1,0-11.331,9.54,9.54,0,0,1,12.076,0,8.171,8.171,0,0,1,0,11.311Zm-8.916-2.657a4.321,4.321,0,0,0,5.776,0,4.569,4.569,0,0,0,0-5.917,4.321,4.321,0,0,0-5.776,0,4.569,4.569,0,0,0,0,5.917Z" transform="translate(60.193 11.58)" fill="#fff"/>
    <path id="Path_278" data-name="Path 278" d="M103.679,50.306a2.918,2.918,0,0,1-3.844,0,2.435,2.435,0,0,1,0-3.542,2.979,2.979,0,0,1,3.844,0,2.435,2.435,0,0,1,0,3.542Zm.423,18.557a5.414,5.414,0,0,1-3.361-.966,3.18,3.18,0,0,1-1.248-2.637V54.311a.523.523,0,0,1,.584-.584h3.381c.382,0,.564.2.564.584v9.5q0,1.147,1.026,1.147a3.12,3.12,0,0,0,.906-.1c.4,0,.624.121.644.483l.3,2.516a.523.523,0,0,1-.483.624A7.628,7.628,0,0,1,104.1,68.863Z" transform="translate(69.896 7.975)" fill="#fff"/>
    <path id="Path_279" data-name="Path 279" d="M114.8,49.637a7.89,7.89,0,0,1,5.756,2.174,8.252,8.252,0,0,1,0,11.251,7.829,7.829,0,0,1-5.756,2.194,6.924,6.924,0,0,1-4.207-1.308v7.266c0,.382-.2.564-.584.564H106.63a.483.483,0,0,1-.564-.564v-16.5a1.047,1.047,0,0,0-1.187-1.187h-.664q-.664,0-.664-.483V50.664a.644.644,0,0,1,.463-.664,6.038,6.038,0,0,1,2.174-.362,3.723,3.723,0,0,1,3.643,2.013,6.783,6.783,0,0,1,4.971-2.013Zm-3.14,10.808a3.844,3.844,0,0,0,5.555,0,4.347,4.347,0,0,0,1.107-3.079,4.287,4.287,0,0,0-1.107-3.079,3.844,3.844,0,0,0-5.555,0,4.448,4.448,0,0,0-1.067,3.079,4.508,4.508,0,0,0,1.067,3.079Z" transform="translate(74.431 11.583)" fill="#fff"/>
    <path id="Path_280" data-name="Path 280" d="M121.6,65.294a9.7,9.7,0,0,1-5.173-1.248,4.911,4.911,0,0,1-2.335-3.562c0-.4.141-.6.584-.6h2.959a.765.765,0,0,1,.664.443c.423,1.087,1.53,1.63,3.3,1.63a3.764,3.764,0,0,0,1.791-.362,1.167,1.167,0,0,0,.684-.986c0-.523-.322-.886-.966-1.127a10.89,10.89,0,0,0-2.355-.5,22.379,22.379,0,0,1-2.818-.5,4.629,4.629,0,0,1-2.355-1.349,4.307,4.307,0,0,1,.865-6.239,8.292,8.292,0,0,1,4.871-1.288,8.9,8.9,0,0,1,4.75,1.187,4.488,4.488,0,0,1,2.214,3.16q0,.6-.543.6h-2.979a.624.624,0,0,1-.6-.362,2.013,2.013,0,0,0-1.047-1.067,3.542,3.542,0,0,0-1.731-.4,3.5,3.5,0,0,0-1.711.342,1.006,1.006,0,0,0-.644.926,1.288,1.288,0,0,0,.966,1.187,10.908,10.908,0,0,0,2.4.6,26.324,26.324,0,0,1,2.8.523,4.629,4.629,0,0,1,2.355,1.349,3.8,3.8,0,0,1,.986,2.757,4.025,4.025,0,0,1-1.872,3.5A8.8,8.8,0,0,1,121.6,65.294Z" transform="translate(85.106 11.544)" fill="#fff"/>
    <path id="Path_281" data-name="Path 281" d="M141.09,64a.543.543,0,0,1-.463.624,7.77,7.77,0,0,1-2.274.382,4.468,4.468,0,0,1-4.025-1.751,7.286,7.286,0,0,1-5.132,1.751,6.239,6.239,0,0,1-4.71-1.832,6.6,6.6,0,0,1-1.791-4.851v-7.87c0-.382.181-.584.564-.584h3.381c.382,0,.564.2.564.584v7.266a3.562,3.562,0,0,0,.865,2.476,3.019,3.019,0,0,0,2.315.946,3.341,3.341,0,0,0,2.415-.886,3.22,3.22,0,0,0,.906-2.4V50.454c0-.382.181-.584.564-.584h3.422c.382,0,.564.2.564.584v9.48c0,.785.342,1.167,1.006,1.167a3.179,3.179,0,0,0,.926-.1.523.523,0,0,1,.664.483Z" transform="translate(93.811 11.833)" fill="#fff"/>
    <path id="Path_282" data-name="Path 282" d="M163.164,64.249a.5.5,0,0,1-.463.624,7.808,7.808,0,0,1-2.315.382,5.374,5.374,0,0,1-3.361-.966,3.14,3.14,0,0,1-1.349-2.637v-4.73a3.563,3.563,0,0,0-.845-2.476,2.858,2.858,0,0,0-2.254-.946,2.516,2.516,0,0,0-2.013.886,3.582,3.582,0,0,0-.765,2.375v7.427c0,.382-.181.584-.564.584h-3.4a.523.523,0,0,1-.584-.584V56.923a3.723,3.723,0,0,0-.785-2.476,2.617,2.617,0,0,0-2.013-.946,2.918,2.918,0,0,0-2.214.886,3.321,3.321,0,0,0-.825,2.375v7.427a.523.523,0,0,1-.584.584H135.55c-.382,0-.564-.2-.564-.584v-9.48a1.047,1.047,0,0,0-1.187-1.187h-.664q-.664,0-.664-.483V50.663a.644.644,0,0,1,.463-.664,6.038,6.038,0,0,1,2.174-.362,3.784,3.784,0,0,1,3.583,1.852,6.8,6.8,0,0,1,5.112-1.852,5.776,5.776,0,0,1,4.77,2.133,6.642,6.642,0,0,1,5.273-2.133,6.36,6.36,0,0,1,4.77,1.832,6.561,6.561,0,0,1,1.791,4.851V60.2c0,.765.342,1.147.986,1.147a3.019,3.019,0,0,0,.926-.1q.624,0,.664.483Z" transform="translate(103.718 11.583)" fill="#fff"/>
    <path id="Path_283" data-name="Path 283" d="M30.875,59.086a27.554,27.554,0,0,1,53.477,0H81.937a19.5,19.5,0,0,0-11.412,3.482,5.755,5.755,0,0,1-.6.382h-.282a5.759,5.759,0,0,1-.6-.382,20.469,20.469,0,0,0-22.844,0,5.755,5.755,0,0,1-.6.382h-.282a5.759,5.759,0,0,1-.6-.382A19.5,19.5,0,0,0,33.29,59.086ZM77.59,71.706a6.783,6.783,0,0,1,4.347-1.429h3.24V63.816h-3.24a12.841,12.841,0,0,0-7.709,2.455,7.326,7.326,0,0,1-8.695,0,13.686,13.686,0,0,0-15.639,0,7.326,7.326,0,0,1-8.695,0,12.841,12.841,0,0,0-7.809-2.455H30.05v6.461h3.24a6.783,6.783,0,0,1,4.347,1.429,13.646,13.646,0,0,0,15.618,0A6.823,6.823,0,0,1,57.6,70.277a6.742,6.742,0,0,1,4.347,1.429,13.686,13.686,0,0,0,15.639,0Zm0,11.553a6.783,6.783,0,0,1,4.347-1.429h3.24V75.369h-3.24a12.841,12.841,0,0,0-7.709,2.455,7.326,7.326,0,0,1-8.695,0,13.686,13.686,0,0,0-15.639,0,7.326,7.326,0,0,1-8.695,0,12.841,12.841,0,0,0-7.809-2.455H30.05V81.83h3.24a6.783,6.783,0,0,1,4.347,1.429,13.646,13.646,0,0,0,15.618,0A6.823,6.823,0,0,1,57.6,81.83a6.742,6.742,0,0,1,4.347,1.429,13.686,13.686,0,0,0,15.639,0Z" transform="translate(130 -39)" fill="#fff"/>
  </g>
</svg>
