<svg xmlns="http://www.w3.org/2000/svg" width="155.19" height="73.814" viewBox="0 0 155.19 73.814">
  <g id="logo-4" transform="translate(-38.79 -26.18)">
    <path id="Path_265" data-name="Path 265" d="M38.79,54.79h4.647V77.575H38.79Z" transform="translate(0 15.706)" fill="#fff"/>
    <path id="Path_266" data-name="Path 266" d="M43.53,67.4A8.271,8.271,0,1,1,51.8,75.653,8.178,8.178,0,0,1,43.53,67.4Zm11.865,0A3.594,3.594,0,1,0,51.8,71.083,3.5,3.5,0,0,0,55.4,67.4Z" transform="translate(2.602 18.077)" fill="#fff"/>
    <path id="Path_267" data-name="Path 267" d="M72.314,59.576V74.415c0,5.251-4.1,7.466-8.256,7.466A7.977,7.977,0,0,1,56.67,78.1l4-2.308a3.563,3.563,0,0,0,3.485,1.967,3.1,3.1,0,0,0,3.594-3.346V72.974A5.514,5.514,0,0,1,63.191,75a7.931,7.931,0,1,1,0-15.861,5.561,5.561,0,0,1,4.554,2.029V59.622Zm-4.569,7.5A3.779,3.779,0,1,0,63.965,70.7a3.532,3.532,0,0,0,3.779-3.625Z" transform="translate(9.041 18.092)" fill="#fff"/>
    <path id="Path_268" data-name="Path 268" d="M68,67.4a8.271,8.271,0,1,1,8.271,8.256A8.178,8.178,0,0,1,68,67.4Zm11.865,0a3.594,3.594,0,1,0-3.594,3.687A3.5,3.5,0,0,0,79.834,67.4Z" transform="translate(16.035 18.077)" fill="#fff"/>
    <path id="Path_269" data-name="Path 269" d="M80.07,57.719a2.819,2.819,0,1,1,2.819,2.819,2.819,2.819,0,0,1-2.819-2.819Zm.48,4.182H85.2V77.515H80.55Z" transform="translate(22.661 15.766)" fill="#fff"/>
    <path id="Path_270" data-name="Path 270" d="M102.394,67.383a7.838,7.838,0,0,1-7.45,8.256A5.933,5.933,0,0,1,90.3,73.734v7.745H85.65v-21.9H90.3v1.472a5.932,5.932,0,0,1,4.647-1.905,7.838,7.838,0,0,1,7.45,8.24Zm-4.647,0a3.718,3.718,0,1,0-3.81,3.81,3.563,3.563,0,0,0,3.779-3.81Z" transform="translate(25.724 18.091)" fill="#fff"/>
    <path id="Path_271" data-name="Path 271" d="M110.483,70.5c0,3.594-3.1,5.127-6.506,5.127a6.846,6.846,0,0,1-6.707-3.717l4.058-2.308a2.571,2.571,0,0,0,2.649,1.843c1.131,0,1.688-.356,1.688-.976,0-1.719-7.745-.805-7.745-6.2,0-3.408,2.881-5.127,6.2-5.127a6.862,6.862,0,0,1,6.1,3.346l-4.074,2.138a2.308,2.308,0,0,0-2.107-1.379c-.805,0-1.3.31-1.3.883C102.8,65.92,110.483,64.727,110.483,70.5Z" transform="translate(32.103 18.098)" fill="#fff"/>
    <path id="Path_272" data-name="Path 272" d="M122.137,59.42V75.033h-4.647V73.577a5.344,5.344,0,0,1-4.461,1.905c-3.1,0-5.84-2.246-5.84-6.475V59.42h4.647v8.907a2.571,2.571,0,0,0,2.8,2.835c1.7,0,2.9-.991,2.9-3.206V59.42Z" transform="translate(37.549 18.247)" fill="#fff"/>
    <path id="Path_273" data-name="Path 273" d="M142.442,65.62v9.573h-4.647v-9.17c0-1.549-.759-2.571-2.246-2.571s-2.447,1.1-2.447,2.943v8.8h-4.647v-9.17c0-1.549-.744-2.571-2.246-2.571s-2.432,1.1-2.432,2.943v8.8H119.13V59.579h4.647V61.02a4.8,4.8,0,0,1,4.182-1.874,4.647,4.647,0,0,1,4.089,2.06,5.143,5.143,0,0,1,4.523-2.06C140.1,59.145,142.442,61.717,142.442,65.62Z" transform="translate(44.103 18.088)" fill="#fff"/>
    <circle id="Ellipse_41" data-name="Ellipse 41" cx="3.47" cy="3.47" r="3.47" transform="translate(187.041 70.635)" fill="#fff"/>
    <circle id="Ellipse_42" data-name="Ellipse 42" cx="16.249" cy="16.249" r="16.249" transform="translate(75.129 26.18)" fill="#fff"/>
    <circle id="Ellipse_43" data-name="Ellipse 43" cx="16.249" cy="16.249" r="16.249" transform="translate(111.452 26.18)" fill="#fff"/>
    <rect id="Rectangle_6" data-name="Rectangle 6" width="32.482" height="32.482" transform="translate(38.821 26.18)" fill="#fff"/>
  </g>
</svg>
