<svg id="undraw_aircraft_fbvl" xmlns="http://www.w3.org/2000/svg" width="759.746" height="480.79" viewBox="0 0 759.746 480.79">
  <path id="Path_405" data-name="Path 405" d="M712.364,617.017c-6.982,2.573-19.245,4.688-33.437,6.389-38.59,4.631-91.472,6.274-91.472,6.274S315.606,652.227,111.86,568.373c0,0-29.635-15.536-2.144-36.446a89.55,89.55,0,0,1,13.449-8.2l.336-.336a71.377,71.377,0,0,1,10.1-7.782c10.555-6.825,28.378-14.914,50.074-11.248L718.8,590.905S738.341,607.42,712.364,617.017Z" transform="translate(-98.03 -333.563)" fill="#3f3d56"/>
  <path id="Path_406" data-name="Path 406" d="M1116.01,572.635l112.024-79.48,49.373,8.54-48.344,84.054S1117.3,586.641,1116.01,572.635Z" transform="translate(-608.298 -328.406)" fill="#3f3d56"/>
  <path id="Path_407" data-name="Path 407" d="M452.462,329.99,675.6,267.411l35.967,7.518-100.8,45.343-31.5,35.245Z" transform="translate(-226.782 -134.048)" fill="#3f3d56"/>
  <path id="Path_408" data-name="Path 408" d="M678.927,652.034c-38.59,4.631-91.472,6.274-91.472,6.274S315.606,680.855,111.86,597c0,0-29.635-15.536-2.144-36.446l.093.386s43.964,29.714,254.019,54.518Z" transform="translate(-98.03 -362.191)" fill="#f9a826"/>
  <path id="Path_409" data-name="Path 409" d="M1190.349,728.4l99.761,40.733,25.062-2.78L1255.5,721.5S1183.324,706.1,1190.349,728.4Z" transform="translate(-645.319 -440.267)" fill="#3f3d56"/>
  <path id="Path_410" data-name="Path 410" d="M171.619,548.889c-4.759.079-15.664-7.9-22.446-13.278a71.381,71.381,0,0,1,10.1-7.782c5.467,4.195,15.193,10.984,20.6,10.719C187.684,538.227,178.787,548.761,171.619,548.889Z" transform="translate(-123.666 -345.787)" fill="#f9a826"/>
  <path id="Path_411" data-name="Path 411" d="M807.619,861.1l-64.052,3.352L563.482,743.025l-33.43-22.546-16.236-10.955c30.464-25.726,154.758,9.755,154.758,9.755,2.38,2.008,3.137,5.345,3.03,9.033-.207,6.9-3.452,15.007-4.7,17.923-.3.715-.486,1.093-.486,1.093Z" transform="translate(-306.445 -432.171)" fill="#3f3d56"/>
  <path id="Path_412" data-name="Path 412" d="M596.655,872.108l-11.112,7.032,6.732-12.242a10.969,10.969,0,0,0-6.7-2.394h-.179a12.3,12.3,0,0,1-2.3-.172l-3.759,2.387,1.608-2.93a13.42,13.42,0,0,1-6.575-5l-6.725,4.288,4.245-7.732c-3.93-4.724-9.233-7.618-15.071-7.618-7,0-13.228,4.159-17.251,10.648a12.906,12.906,0,0,1-11.434,6.146h-.372c-7.725,0-13.985,8.754-13.985,19.559s6.26,19.559,13.985,19.559a10.433,10.433,0,0,0,4.867-1.222,20.209,20.209,0,0,1,16.929-.329,17.659,17.659,0,0,0,14.392,0,20.2,20.2,0,0,1,16.772.322,10.519,10.519,0,0,0,4.824,1.193c7.725,0,13.985-8.754,13.985-19.559A24.847,24.847,0,0,0,596.655,872.108Z" transform="translate(-306.424 -506.136)" fill="#f2f2f2"/>
  <path id="Path_413" data-name="Path 413" d="M575.8,926.34a20.725,20.725,0,0,0-11.984,1.3,17.6,17.6,0,0,1-14.385,0,20.159,20.159,0,0,0-16.929.329,10.528,10.528,0,0,1-4.874,1.222c-6.86,0-12.57-6.918-13.756-16.036a13.049,13.049,0,0,0,3.43-3.695c4.023-6.482,10.255-10.641,17.251-10.641s13.163,4.073,17.18,10.5a13.221,13.221,0,0,0,11.4,6.267h.179C568.771,915.578,573.5,919.952,575.8,926.34Z" transform="translate(-306.474 -531.748)" opacity="0.03"/>
  <path id="Path_414" data-name="Path 414" d="M1225.672,853.481l-11.113,7.032,6.732-12.241a10.97,10.97,0,0,0-6.7-2.394h-.179a12.3,12.3,0,0,1-2.3-.172l-3.759,2.387,1.608-2.93a13.42,13.42,0,0,1-6.574-5l-6.725,4.288,4.245-7.732c-3.93-4.724-9.233-7.618-15.071-7.618-7,0-13.228,4.159-17.251,10.648a12.906,12.906,0,0,1-11.434,6.146h-.372c-7.725,0-13.985,8.754-13.985,19.559s6.26,19.559,13.985,19.559a10.433,10.433,0,0,0,4.866-1.222,20.21,20.21,0,0,1,16.929-.329,17.658,17.658,0,0,0,14.392,0,20.2,20.2,0,0,1,16.772.322,10.518,10.518,0,0,0,4.824,1.193c7.725,0,13.985-8.754,13.985-19.559a24.848,24.848,0,0,0-2.873-11.934Z" transform="translate(-621.721 -496.799)" fill="#f2f2f2"/>
  <path id="Path_415" data-name="Path 415" d="M1204.819,907.713a20.723,20.723,0,0,0-11.984,1.3,17.6,17.6,0,0,1-14.385,0,20.16,20.16,0,0,0-16.929.329,10.527,10.527,0,0,1-4.874,1.222c-6.86,0-12.57-6.918-13.756-16.036a13.053,13.053,0,0,0,3.43-3.695c4.023-6.482,10.255-10.641,17.251-10.641s13.163,4.073,17.179,10.5a13.221,13.221,0,0,0,11.434,6.267h.179C1197.787,896.951,1202.518,901.325,1204.819,907.713Z" transform="translate(-621.771 -522.411)" opacity="0.03"/>
  <path id="Path_416" data-name="Path 416" d="M1225.672,383.51l-11.113,7.032,6.732-12.242a10.97,10.97,0,0,0-6.7-2.394h-.179a12.3,12.3,0,0,1-2.3-.172l-3.759,2.387,1.608-2.93a13.42,13.42,0,0,1-6.574-5l-6.725,4.288,4.245-7.732c-3.93-4.724-9.233-7.618-15.071-7.618-7,0-13.228,4.159-17.251,10.648a12.906,12.906,0,0,1-11.434,6.146h-.372c-7.725,0-13.985,8.754-13.985,19.559s6.26,19.559,13.985,19.559a10.434,10.434,0,0,0,4.866-1.222,20.21,20.21,0,0,1,16.929-.329,17.658,17.658,0,0,0,14.392.036,20.2,20.2,0,0,1,16.772.322,10.519,10.519,0,0,0,4.824,1.193c7.725,0,13.985-8.754,13.985-19.559A24.848,24.848,0,0,0,1225.672,383.51Z" transform="translate(-621.721 -261.224)" fill="#f2f2f2"/>
  <path id="Path_417" data-name="Path 417" d="M1204.819,437.742a20.723,20.723,0,0,0-11.984,1.3,17.6,17.6,0,0,1-14.385,0,20.159,20.159,0,0,0-16.929.329,10.527,10.527,0,0,1-4.874,1.222c-6.86,0-12.57-6.918-13.756-16.036a13.053,13.053,0,0,0,3.43-3.695c4.023-6.482,10.255-10.641,17.251-10.641s13.163,4.073,17.179,10.5a13.221,13.221,0,0,0,11.434,6.267h.179C1197.787,426.98,1202.518,431.353,1204.819,437.742Z" transform="translate(-621.771 -286.835)" opacity="0.03"/>
  <path id="Path_418" data-name="Path 418" d="M347.56,345.119l-5.538,3.509,3.359-6.1a5.446,5.446,0,0,0-3.344-1.2h-.086a6.819,6.819,0,0,1-1.151-.086l-1.872,1.186.8-1.429a6.689,6.689,0,0,1-3.28-2.494l-3.352,2.144,2.144-3.852a9.8,9.8,0,0,0-7.518-3.8c-3.487,0-6.6,2.072-8.575,5.31a6.432,6.432,0,0,1-5.717,3.066h-.186c-3.852,0-6.975,4.373-6.975,9.762s3.123,9.755,6.975,9.755a5.231,5.231,0,0,0,2.43-.607,10.055,10.055,0,0,1,8.447-.164,8.8,8.8,0,0,0,7.146,0,10.062,10.062,0,0,1,8.368.164,5.3,5.3,0,0,0,2.4.593c3.852,0,6.975-4.366,6.975-9.755a12.449,12.449,0,0,0-1.451-6Z" transform="translate(-202.411 -248.123)" fill="#f2f2f2"/>
  <path id="Path_419" data-name="Path 419" d="M337.1,372.124a10.262,10.262,0,0,0-5.981.65,8.89,8.89,0,0,1-3.573.758,8.761,8.761,0,0,1-3.609-.779,10.076,10.076,0,0,0-8.447.171,5.2,5.2,0,0,1-2.423.607c-3.423,0-6.274-3.452-6.868-8a6.718,6.718,0,0,0,1.715-1.844c2-3.237,5.11-5.31,8.575-5.31s6.56,2.051,8.576,5.245a6.589,6.589,0,0,0,5.717,3.123h.093C333.568,366.75,335.948,368.937,337.1,372.124Z" transform="translate(-202.375 -260.85)" opacity="0.03"/>
  <path id="Path_420" data-name="Path 420" d="M1336.22,1045.778l-5.538,3.509,3.359-6.1a5.445,5.445,0,0,0-3.344-1.2h-.086a6.825,6.825,0,0,1-1.151-.086l-1.872,1.186.8-1.429a6.688,6.688,0,0,1-3.28-2.494l-3.352,2.144,2.144-3.852a9.8,9.8,0,0,0-7.518-3.8c-3.487,0-6.6,2.072-8.575,5.31a6.432,6.432,0,0,1-5.717,3.066h-.186c-3.852,0-6.975,4.373-6.975,9.762s3.123,9.755,6.975,9.755a5.231,5.231,0,0,0,2.43-.607,10.055,10.055,0,0,1,8.447-.164,8.8,8.8,0,0,0,7.146,0,10.062,10.062,0,0,1,8.368.164,5.3,5.3,0,0,0,2.4.593c3.852,0,6.975-4.366,6.975-9.755A12.448,12.448,0,0,0,1336.22,1045.778Z" transform="translate(-697.982 -599.332)" fill="#f2f2f2"/>
  <path id="Path_421" data-name="Path 421" d="M1325.757,1072.782a10.262,10.262,0,0,0-5.981.65,8.889,8.889,0,0,1-3.573.757,8.761,8.761,0,0,1-3.609-.779,10.077,10.077,0,0,0-8.447.172,5.2,5.2,0,0,1-2.422.607c-3.423,0-6.274-3.452-6.868-8a6.717,6.717,0,0,0,1.715-1.844c2-3.237,5.109-5.31,8.575-5.31s6.56,2.051,8.575,5.245a6.588,6.588,0,0,0,5.717,3.123h.093C1322.227,1067.408,1324.607,1069.6,1325.757,1072.782Z" transform="translate(-697.946 -612.059)" opacity="0.03"/>
  <path id="Path_422" data-name="Path 422" d="M304.575,1083.031l-5.538,3.509,3.359-6.1a5.446,5.446,0,0,0-3.344-1.2h-.086a6.813,6.813,0,0,1-1.151-.086l-1.872,1.186.8-1.429a6.688,6.688,0,0,1-3.28-2.494l-3.352,2.144,2.144-3.852a9.8,9.8,0,0,0-7.518-3.8c-3.487,0-6.6,2.072-8.575,5.31a6.432,6.432,0,0,1-5.717,3.066h-.186c-3.852,0-6.975,4.374-6.975,9.762s3.123,9.755,6.975,9.755a5.23,5.23,0,0,0,2.43-.608,10.055,10.055,0,0,1,8.447-.164,8.8,8.8,0,0,0,7.146,0,10.062,10.062,0,0,1,8.368.164,5.3,5.3,0,0,0,2.4.593c3.852,0,6.975-4.366,6.975-9.755a12.449,12.449,0,0,0-1.451-6Z" transform="translate(-180.865 -618.006)" fill="#f2f2f2"/>
  <path id="Path_423" data-name="Path 423" d="M294.113,1110.036a10.263,10.263,0,0,0-5.981.65,8.89,8.89,0,0,1-3.573.758,8.763,8.763,0,0,1-3.609-.779,10.077,10.077,0,0,0-8.447.172,5.2,5.2,0,0,1-2.423.607c-3.423,0-6.274-3.452-6.867-8a6.715,6.715,0,0,0,1.715-1.844c2-3.237,5.109-5.31,8.575-5.31s6.56,2.051,8.575,5.245a6.589,6.589,0,0,0,5.717,3.123h.093C290.583,1104.662,292.962,1106.849,294.113,1110.036Z" transform="translate(-180.829 -630.732)" opacity="0.03"/>
  <path id="Path_424" data-name="Path 424" d="M775.76,187.211l-11.112,7.032L771.379,182a10.969,10.969,0,0,0-6.7-2.394H764.5a12.3,12.3,0,0,1-2.3-.172l-3.759,2.387,1.608-2.93a13.42,13.42,0,0,1-6.575-5l-6.725,4.288,4.245-7.732c-3.93-4.724-9.233-7.618-15.071-7.618-7,0-13.228,4.159-17.251,10.648a12.906,12.906,0,0,1-11.434,6.146h-.372c-7.725,0-13.985,8.754-13.985,19.559s6.26,19.559,13.985,19.559a10.433,10.433,0,0,0,4.867-1.222,20.21,20.21,0,0,1,16.929-.329,17.658,17.658,0,0,0,14.393.036,20.2,20.2,0,0,1,16.772.322,10.519,10.519,0,0,0,4.824,1.193c7.725,0,13.985-8.754,13.985-19.559a24.848,24.848,0,0,0-2.873-11.97Z" transform="translate(-396.201 -162.828)" fill="#f2f2f2"/>
  <path id="Path_425" data-name="Path 425" d="M754.908,241.443a20.724,20.724,0,0,0-11.984,1.3,17.6,17.6,0,0,1-14.385,0,20.16,20.16,0,0,0-16.929.329,10.526,10.526,0,0,1-4.874,1.222c-6.86,0-12.57-6.918-13.756-16.036a13.05,13.05,0,0,0,3.43-3.695c4.023-6.482,10.255-10.641,17.251-10.641s13.163,4.073,17.18,10.5a13.221,13.221,0,0,0,11.434,6.267h.179C747.876,230.681,752.607,235.054,754.908,241.443Z" transform="translate(-396.251 -188.44)" opacity="0.03"/>
  <path id="Path_426" data-name="Path 426" d="M1576.937,445.418l-5.538,3.509,3.359-6.1a5.445,5.445,0,0,0-3.344-1.2h-.086a6.823,6.823,0,0,1-1.151-.086l-1.872,1.186.8-1.429a6.69,6.69,0,0,1-3.28-2.494l-3.351,2.144,2.144-3.852a9.8,9.8,0,0,0-7.518-3.8c-3.487,0-6.6,2.072-8.575,5.31a6.432,6.432,0,0,1-5.717,3.066h-.186c-3.852,0-6.975,4.373-6.975,9.762s3.123,9.755,6.975,9.755a5.232,5.232,0,0,0,2.43-.607,10.055,10.055,0,0,1,8.447-.164,8.8,8.8,0,0,0,7.146,0,10.061,10.061,0,0,1,8.368.164,5.3,5.3,0,0,0,2.4.593c3.852,0,6.975-4.366,6.975-9.755a12.446,12.446,0,0,0-1.451-6Z" transform="translate(-818.642 -298.399)" fill="#f2f2f2"/>
  <path id="Path_427" data-name="Path 427" d="M1566.51,472.423a10.262,10.262,0,0,0-5.981.65,8.889,8.889,0,0,1-3.573.757,8.761,8.761,0,0,1-3.573-.779,10.076,10.076,0,0,0-8.447.171,5.2,5.2,0,0,1-2.423.607c-3.423,0-6.274-3.452-6.867-8a6.722,6.722,0,0,0,1.715-1.844c2-3.237,5.11-5.31,8.575-5.31s6.56,2.051,8.575,5.245a6.589,6.589,0,0,0,5.681,3.123h.093C1562.98,467.049,1565.36,469.236,1566.51,472.423Z" transform="translate(-818.642 -311.126)" opacity="0.03"/>
</svg>
