<?xml version="1.0" encoding="UTF-8" standalone="no"?>
<svg
   xmlns:dc="http://purl.org/dc/elements/1.1/"
   xmlns:cc="http://creativecommons.org/ns#"
   xmlns:rdf="http://www.w3.org/1999/02/22-rdf-syntax-ns#"
   xmlns:svg="http://www.w3.org/2000/svg"
   xmlns="http://www.w3.org/2000/svg"
   xmlns:sodipodi="http://sodipodi.sourceforge.net/DTD/sodipodi-0.dtd"
   xmlns:inkscape="http://www.inkscape.org/namespaces/inkscape"
   id="f9eb83fe-2109-496c-8de2-d29751931755"
   data-name="Layer 1"
   width="978"
   height="719.80634"
   viewBox="0 0 977.99996 719.80631"
   version="1.1"
   sodipodi:docname="undraw_authentication_fsn5.svg"
   inkscape:version="1.0.1 (3bc2e813f5, 2020-09-07)">
  <metadata
     id="metadata182">
    <rdf:RDF>
      <cc:Work
         rdf:about="">
        <dc:format>image/svg+xml</dc:format>
        <dc:type
           rdf:resource="http://purl.org/dc/dcmitype/StillImage" />
        <dc:title>authentication</dc:title>
      </cc:Work>
    </rdf:RDF>
  </metadata>
  <sodipodi:namedview
     pagecolor="#ffffff"
     bordercolor="#666666"
     borderopacity="1"
     objecttolerance="10"
     gridtolerance="10"
     guidetolerance="10"
     inkscape:pageopacity="0"
     inkscape:pageshadow="2"
     inkscape:window-width="1920"
     inkscape:window-height="1051"
     id="namedview180"
     showgrid="false"
     fit-margin-top="0"
     fit-margin-left="0"
     fit-margin-right="0"
     fit-margin-bottom="0"
     inkscape:zoom="0.77289986"
     inkscape:cx="614.03575"
     inkscape:cy="304.32267"
     inkscape:window-x="-9"
     inkscape:window-y="-9"
     inkscape:window-maximized="1"
     inkscape:current-layer="f9eb83fe-2109-496c-8de2-d29751931755" />
  <defs
     id="defs9">
    <linearGradient
       id="b7f84a8b-804f-4004-8d61-2f9b427d4893"
       x1="785.51001"
       y1="659.88"
       x2="938.51001"
       y2="659.88"
       gradientUnits="userSpaceOnUse"
       gradientTransform="translate(-86.87,-132.69)">
      <stop
         offset="0"
         stop-color="gray"
         stop-opacity="0.25"
         id="stop2" />
      <stop
         offset="0.54"
         stop-color="gray"
         stop-opacity="0.12"
         id="stop4" />
      <stop
         offset="1"
         stop-color="gray"
         stop-opacity="0.1"
         id="stop6" />
    </linearGradient>
  </defs>
  <title
     id="title11">authentication</title>
  <path
     d="m 922.57,560.13 c 0,0 -12.29,-8.11 -24.47,-2.34 0,0 3.75,7.22 19.17,6.54 z"
     fill="#f9a826"
     id="path15" />
  <path
     d="m 924.13,560.56 c 0,0 3.74,14.24 -5.64,23.93 0,0 -5.64,-5.87 0,-20.25 z"
     fill="#f9a826"
     id="path17" />
  <path
     d="m 939.41,546.89 c 0,0 -0.91,-12.11 -28.26,-8.09 0,0 -0.13,7.81 9.47,11.51 9.6,3.7 14,0.58 18.79,-3.42 z"
     fill="#f9a826"
     id="path19" />
  <path
     d="m 941.13,546.81 c 0,0 11.56,3.71 1.25,29.36 0,0 -7.63,-1.7 -9,-11.91 -1.37,-10.21 2.69,-13.73 7.75,-17.45 z"
     fill="#f9a826"
     id="path21" />
  <path
     d="m 956.57,529.63 c 0,0 1.57,-19.93 -26.38,-17.89 0,0 -2,18 21.45,22.68 z"
     fill="#f9a826"
     id="path23" />
  <path
     d="m 975.04,507.13 c 0,0 -3.83,-22.59 -31.77,-15.86 0,0 -0.1,19.53 27.21,21.24 z"
     fill="#f9a826"
     id="path25" />
  <path
     d="m 957.33,529.48 c 0,0 19.82,-2.59 19.23,25.42 0,0 -17.91,2.92 -23.76,-20.25 z"
     fill="#f9a826"
     id="path51" />
  <path
     d="M 969.44,0 H 8.56 A 8.56,8.56 0 0 0 0,8.56 V 33.5 H 978 V 8.56 A 8.56,8.56 0 0 0 969.44,0 Z"
     fill="#3f3d56"
     id="path87" />
  <path
     d="M 0,33.5 V 594.74 A 17.26,17.26 0 0 0 17.26,612 H 960.74 A 17.26,17.26 0 0 0 978,594.74 V 33.5 Z"
     fill="#ffffff"
     id="path89" />
  <circle
     cx="15.489997"
     cy="16.500004"
     r="4"
     fill="#fa5959"
     opacity="0.8"
     id="circle91" />
  <circle
     cx="26.489998"
     cy="16.500004"
     r="4"
     fill="#fed253"
     opacity="0.8"
     id="circle93" />
  <circle
     cx="37.489998"
     cy="16.500004"
     r="4"
     fill="#8ccf4d"
     opacity="0.8"
     id="circle95" />
  <rect
     x="90.909996"
     y="127.07999"
     width="786"
     height="345.62"
     opacity="0.05"
     id="rect97" />
  <rect
     x="96.909996"
     y="129.7"
     width="774"
     height="338"
     fill="#3f3d56"
     id="rect99" />
  <path
     d="m 307.91,216.69 a 77,77 0 1 0 77,77 77,77 0 0 0 -77,-77 z m 13.81,78.85 V 332 H 294.5 v -36.46 a 22.55,22.55 0 1 1 27.22,0 z"
     fill="#f9a826"
     id="path101" />
  <path
     d="m 307.91,216.69 a 77,77 0 1 0 77,77 77,77 0 0 0 -77,-77 z m 13.81,78.85 V 332 H 294.5 v -36.46 a 22.55,22.55 0 1 1 27.22,0 z"
     opacity="0.05"
     id="path103" />
  <path
     d="m 307.91,194.69 a 99,99 0 1 0 99,99 99,99 0 0 0 -99,-99 z m 17.75,101.38 v 46.87 h -35 v -46.87 a 29,29 0 1 1 35,0 z"
     fill="#f9a826"
     id="path105" />
  <rect
     x="447.91"
     y="280.69998"
     width="320"
     height="34"
     fill="#ffffff"
     id="rect107" />
  <rect
     x="698.90997"
     y="342.69998"
     width="69"
     height="34"
     fill="#f9a826"
     id="rect109" />
  <path
     d="m 479.41,297.19 h -5.79 l 5.15,-5.14 a 0.51,0.51 0 0 0 0,-0.71 0.5,0.5 0 0 0 -0.71,0 l -5.15,5.15 v -5.8 a 0.5,0.5 0 0 0 -0.5,-0.5 0.51,0.51 0 0 0 -0.5,0.5 v 5.8 l -5.14,-5.18 a 0.5,0.5 0 0 0 -0.71,0 0.51,0.51 0 0 0 0,0.71 l 5.15,5.14 h -5.8 a 0.51,0.51 0 0 0 -0.5,0.5 0.5,0.5 0 0 0 0.5,0.5 h 5.8 l -5.15,5.15 a 0.51,0.51 0 0 0 0,0.71 0.52,0.52 0 0 0 0.71,0 l 5.14,-5.15 v 5.79 a 0.5,0.5 0 0 0 0.5,0.5 0.5,0.5 0 0 0 0.5,-0.5 v -5.79 l 5.15,5.15 a 0.52,0.52 0 0 0 0.71,0 0.51,0.51 0 0 0 0,-0.71 l -5.15,-5.15 h 5.79 a 0.5,0.5 0 0 0 0.5,-0.5 0.5,0.5 0 0 0 -0.5,-0.47 z"
     fill="#f9a826"
     id="path111" />
  <path
     d="m 500.41,297.19 h -5.79 l 5.15,-5.14 a 0.51,0.51 0 0 0 0,-0.71 0.5,0.5 0 0 0 -0.71,0 l -5.15,5.15 v -5.8 a 0.5,0.5 0 0 0 -0.5,-0.5 0.51,0.51 0 0 0 -0.5,0.5 v 5.8 l -5.14,-5.18 a 0.5,0.5 0 0 0 -0.71,0 0.51,0.51 0 0 0 0,0.71 l 5.15,5.14 h -5.8 a 0.51,0.51 0 0 0 -0.5,0.5 0.5,0.5 0 0 0 0.5,0.5 h 5.8 l -5.15,5.15 a 0.51,0.51 0 0 0 0,0.71 0.52,0.52 0 0 0 0.71,0 l 5.14,-5.15 v 5.79 a 0.5,0.5 0 0 0 0.5,0.5 0.5,0.5 0 0 0 0.5,-0.5 v -5.79 l 5.15,5.15 a 0.52,0.52 0 0 0 0.71,0 0.51,0.51 0 0 0 0,-0.71 l -5.15,-5.15 h 5.79 a 0.5,0.5 0 0 0 0.5,-0.5 0.5,0.5 0 0 0 -0.5,-0.47 z"
     fill="#f9a826"
     id="path113" />
  <path
     d="m 521.41,297.19 h -5.79 l 5.15,-5.14 a 0.51,0.51 0 0 0 0,-0.71 0.5,0.5 0 0 0 -0.71,0 l -5.15,5.15 v -5.8 a 0.5,0.5 0 0 0 -0.5,-0.5 0.51,0.51 0 0 0 -0.5,0.5 v 5.8 l -5.14,-5.18 a 0.5,0.5 0 0 0 -0.71,0 0.51,0.51 0 0 0 0,0.71 l 5.15,5.14 h -5.8 a 0.51,0.51 0 0 0 -0.5,0.5 0.5,0.5 0 0 0 0.5,0.5 h 5.8 l -5.15,5.15 a 0.51,0.51 0 0 0 0,0.71 0.52,0.52 0 0 0 0.71,0 l 5.14,-5.15 v 5.79 a 0.5,0.5 0 0 0 0.5,0.5 0.5,0.5 0 0 0 0.5,-0.5 v -5.79 l 5.15,5.15 a 0.52,0.52 0 0 0 0.71,0 0.51,0.51 0 0 0 0,-0.71 l -5.15,-5.15 h 5.79 a 0.5,0.5 0 0 0 0.5,-0.5 0.5,0.5 0 0 0 -0.5,-0.47 z"
     fill="#f9a826"
     id="path115" />
  <path
     d="m 542.41,297.19 h -5.79 l 5.15,-5.14 a 0.51,0.51 0 0 0 0,-0.71 0.5,0.5 0 0 0 -0.71,0 l -5.15,5.15 v -5.8 a 0.5,0.5 0 0 0 -0.5,-0.5 0.51,0.51 0 0 0 -0.5,0.5 v 5.8 l -5.14,-5.18 a 0.5,0.5 0 0 0 -0.71,0 0.51,0.51 0 0 0 0,0.71 l 5.15,5.14 h -5.8 a 0.51,0.51 0 0 0 -0.5,0.5 0.5,0.5 0 0 0 0.5,0.5 h 5.8 l -5.15,5.15 a 0.51,0.51 0 0 0 0,0.71 0.52,0.52 0 0 0 0.71,0 l 5.14,-5.15 v 5.79 a 0.5,0.5 0 0 0 0.5,0.5 0.5,0.5 0 0 0 0.5,-0.5 v -5.79 l 5.15,5.15 a 0.52,0.52 0 0 0 0.71,0 0.51,0.51 0 0 0 0,-0.71 l -5.15,-5.15 h 5.79 a 0.5,0.5 0 0 0 0.5,-0.5 0.5,0.5 0 0 0 -0.5,-0.47 z"
     fill="#f9a826"
     id="path117" />
  <path
     d="m 563.41,297.19 h -5.79 l 5.15,-5.14 a 0.51,0.51 0 0 0 0,-0.71 0.5,0.5 0 0 0 -0.71,0 l -5.15,5.15 v -5.8 a 0.5,0.5 0 0 0 -0.5,-0.5 0.51,0.51 0 0 0 -0.5,0.5 v 5.8 l -5.14,-5.18 a 0.5,0.5 0 0 0 -0.71,0 0.51,0.51 0 0 0 0,0.71 l 5.15,5.14 h -5.8 a 0.51,0.51 0 0 0 -0.5,0.5 0.5,0.5 0 0 0 0.5,0.5 h 5.8 l -5.15,5.15 a 0.51,0.51 0 0 0 0,0.71 0.52,0.52 0 0 0 0.71,0 l 5.14,-5.15 v 5.79 a 0.5,0.5 0 0 0 0.5,0.5 0.5,0.5 0 0 0 0.5,-0.5 v -5.79 l 5.15,5.15 a 0.52,0.52 0 0 0 0.71,0 0.51,0.51 0 0 0 0,-0.71 l -5.15,-5.15 h 5.79 a 0.5,0.5 0 0 0 0.5,-0.5 0.5,0.5 0 0 0 -0.5,-0.47 z"
     fill="#f9a826"
     id="path119" />
  <path
     d="m 584.41,297.19 h -5.79 l 5.15,-5.14 a 0.51,0.51 0 0 0 0,-0.71 0.5,0.5 0 0 0 -0.71,0 l -5.15,5.15 v -5.8 a 0.5,0.5 0 0 0 -0.5,-0.5 0.51,0.51 0 0 0 -0.5,0.5 v 5.8 l -5.14,-5.18 a 0.5,0.5 0 0 0 -0.71,0 0.51,0.51 0 0 0 0,0.71 l 5.15,5.14 h -5.8 a 0.51,0.51 0 0 0 -0.5,0.5 0.5,0.5 0 0 0 0.5,0.5 h 5.8 l -5.15,5.15 a 0.51,0.51 0 0 0 0,0.71 0.52,0.52 0 0 0 0.71,0 l 5.14,-5.15 v 5.79 a 0.5,0.5 0 0 0 0.5,0.5 0.5,0.5 0 0 0 0.5,-0.5 v -5.79 l 5.15,5.15 a 0.52,0.52 0 0 0 0.71,0 0.51,0.51 0 0 0 0,-0.71 l -5.15,-5.15 h 5.79 a 0.5,0.5 0 0 0 0.5,-0.5 0.5,0.5 0 0 0 -0.5,-0.47 z"
     fill="#f9a826"
     id="path121" />
  <path
     d="m 605.41,297.19 h -5.79 l 5.15,-5.14 a 0.51,0.51 0 0 0 0,-0.71 0.5,0.5 0 0 0 -0.71,0 l -5.15,5.15 v -5.8 a 0.5,0.5 0 0 0 -0.5,-0.5 0.51,0.51 0 0 0 -0.5,0.5 v 5.8 l -5.14,-5.18 a 0.5,0.5 0 0 0 -0.71,0 0.51,0.51 0 0 0 0,0.71 l 5.15,5.14 h -5.8 a 0.51,0.51 0 0 0 -0.5,0.5 0.5,0.5 0 0 0 0.5,0.5 h 5.8 l -5.15,5.15 a 0.51,0.51 0 0 0 0,0.71 0.52,0.52 0 0 0 0.71,0 l 5.14,-5.15 v 5.79 a 0.5,0.5 0 0 0 0.5,0.5 0.5,0.5 0 0 0 0.5,-0.5 v -5.79 l 5.15,5.15 a 0.52,0.52 0 0 0 0.71,0 0.51,0.51 0 0 0 0,-0.71 l -5.15,-5.15 h 5.79 a 0.5,0.5 0 0 0 0.5,-0.5 0.5,0.5 0 0 0 -0.5,-0.47 z"
     fill="#f9a826"
     id="path123" />
  <path
     d="m 626.41,297.19 h -5.79 l 5.15,-5.14 a 0.51,0.51 0 0 0 0,-0.71 0.5,0.5 0 0 0 -0.71,0 l -5.15,5.15 v -5.8 a 0.5,0.5 0 0 0 -0.5,-0.5 0.51,0.51 0 0 0 -0.5,0.5 v 5.8 l -5.14,-5.18 a 0.5,0.5 0 0 0 -0.71,0 0.51,0.51 0 0 0 0,0.71 l 5.15,5.14 h -5.8 a 0.51,0.51 0 0 0 -0.5,0.5 0.5,0.5 0 0 0 0.5,0.5 h 5.8 l -5.15,5.15 a 0.51,0.51 0 0 0 0,0.71 0.52,0.52 0 0 0 0.71,0 l 5.14,-5.15 v 5.79 a 0.5,0.5 0 0 0 0.5,0.5 0.5,0.5 0 0 0 0.5,-0.5 v -5.79 l 5.15,5.15 a 0.52,0.52 0 0 0 0.71,0 0.51,0.51 0 0 0 0,-0.71 l -5.15,-5.15 h 5.79 a 0.5,0.5 0 0 0 0.5,-0.5 0.5,0.5 0 0 0 -0.5,-0.47 z"
     fill="#f9a826"
     id="path125" />
  <path
     d="m 647.41,297.19 h -5.79 l 5.15,-5.14 a 0.51,0.51 0 0 0 0,-0.71 0.5,0.5 0 0 0 -0.71,0 l -5.15,5.15 v -5.8 a 0.5,0.5 0 0 0 -0.5,-0.5 0.51,0.51 0 0 0 -0.5,0.5 v 5.8 l -5.14,-5.18 a 0.5,0.5 0 0 0 -0.71,0 0.51,0.51 0 0 0 0,0.71 l 5.15,5.14 h -5.8 a 0.51,0.51 0 0 0 -0.5,0.5 0.5,0.5 0 0 0 0.5,0.5 h 5.8 l -5.15,5.15 a 0.51,0.51 0 0 0 0,0.71 0.52,0.52 0 0 0 0.71,0 l 5.14,-5.15 v 5.79 a 0.5,0.5 0 0 0 0.5,0.5 0.5,0.5 0 0 0 0.5,-0.5 v -5.79 l 5.15,5.15 a 0.52,0.52 0 0 0 0.71,0 0.51,0.51 0 0 0 0,-0.71 l -5.15,-5.15 h 5.79 a 0.5,0.5 0 0 0 0.5,-0.5 0.5,0.5 0 0 0 -0.5,-0.47 z"
     fill="#f9a826"
     id="path127" />
  <path
     d="m 668.41,297.19 h -5.79 l 5.15,-5.14 a 0.51,0.51 0 0 0 0,-0.71 0.5,0.5 0 0 0 -0.71,0 l -5.15,5.15 v -5.8 a 0.5,0.5 0 0 0 -0.5,-0.5 0.51,0.51 0 0 0 -0.5,0.5 v 5.8 l -5.14,-5.18 a 0.5,0.5 0 0 0 -0.71,0 0.51,0.51 0 0 0 0,0.71 l 5.15,5.14 h -5.8 a 0.51,0.51 0 0 0 -0.5,0.5 0.5,0.5 0 0 0 0.5,0.5 h 5.8 l -5.15,5.15 a 0.51,0.51 0 0 0 0,0.71 0.52,0.52 0 0 0 0.71,0 l 5.14,-5.15 v 5.79 a 0.5,0.5 0 0 0 0.5,0.5 0.5,0.5 0 0 0 0.5,-0.5 v -5.79 l 5.15,5.15 a 0.52,0.52 0 0 0 0.71,0 0.51,0.51 0 0 0 0,-0.71 l -5.15,-5.15 h 5.79 a 0.5,0.5 0 0 0 0.5,-0.5 0.5,0.5 0 0 0 -0.5,-0.47 z"
     fill="#f9a826"
     id="path129" />
  <path
     d="m 689.41,297.19 h -5.79 l 5.15,-5.14 a 0.51,0.51 0 0 0 0,-0.71 0.5,0.5 0 0 0 -0.71,0 l -5.15,5.15 v -5.8 a 0.5,0.5 0 0 0 -0.5,-0.5 0.51,0.51 0 0 0 -0.5,0.5 v 5.8 l -5.14,-5.18 a 0.5,0.5 0 0 0 -0.71,0 0.51,0.51 0 0 0 0,0.71 l 5.15,5.14 h -5.8 a 0.51,0.51 0 0 0 -0.5,0.5 0.5,0.5 0 0 0 0.5,0.5 h 5.8 l -5.15,5.15 a 0.51,0.51 0 0 0 0,0.71 0.52,0.52 0 0 0 0.71,0 l 5.14,-5.15 v 5.79 a 0.5,0.5 0 0 0 0.5,0.5 0.5,0.5 0 0 0 0.5,-0.5 v -5.79 l 5.15,5.15 a 0.52,0.52 0 0 0 0.71,0 0.51,0.51 0 0 0 0,-0.71 l -5.15,-5.15 h 5.79 a 0.5,0.5 0 0 0 0.5,-0.5 0.5,0.5 0 0 0 -0.5,-0.47 z"
     fill="#f9a826"
     id="path131" />
  <path
     d="m 850.4,418.84 a 17.9,17.9 0 0 0 -0.45,-3.59 c -0.9,-3.38 -2.93,-7.47 -6.27,-8.49 a 52.64,52.64 0 0 1 -9.94,-4.2 c -0.6,-10.72 1.86,-21.69 -0.82,-32.08 -1,-3.8 -2.65,-7.44 -3.09,-11.33 -0.55,-4.84 0.77,-10 -1.16,-14.46 -1.52,-3.52 -4.86,-6 -8.45,-7.3 -3.59,-1.3 -7.46,-1.65 -11.27,-2 -4.8,-0.39 -20.34,-2.23 -25.76,2.06 v 0 a 5.66,5.66 0 0 0 -1,1 v 0 a 4,4 0 0 0 -0.32,0.52 l -0.05,0.08 a 4.06,4.06 0 0 0 -0.27,0.65 v 0 a 5.06,5.06 0 0 0 -0.17,0.75 c 0,0.08 0,0.16 0,0.24 0,0.08 0,0.35 0,0.53 v 0.27 c 0,0.18 0,0.36 0,0.55 0,0.19 0,0.14 0,0.21 0.07,0.9 0.2,1.8 0.2,2.69 a 5.79,5.79 0 0 1 -0.12,1.32 9.24,9.24 0 0 1 -1.66,3.24 v 0 l -0.18,0.26 c -0.11,0.16 -0.22,0.31 -0.32,0.47 -0.1,0.16 -0.18,0.28 -0.26,0.42 -0.08,0.14 -0.16,0.23 -0.23,0.36 a 4.89,4.89 0 0 0 -0.26,0.51 c 0,0.1 -0.11,0.19 -0.15,0.29 a 4.94,4.94 0 0 0 -0.3,0.84 5.58,5.58 0 0 0 -0.06,2.66 9.9,9.9 0 0 0 1.37,3.15 c 0.25,0.41 0.52,0.81 0.8,1.21 l 0.7,0.95 a 21.58,21.58 0 0 0 -0.21,2.8 20.69,20.69 0 0 0 7.9,16.26 61.25,61.25 0 0 1 -0.13,12.69 c -0.09,0.88 -0.2,1.77 -0.32,2.65 -0.12,0.88 -0.21,1.46 -0.33,2.19 a 10.15,10.15 0 0 1 -4.37,-0.33 20.59,20.59 0 0 0 -2,-0.77 c -2.91,-0.73 -5.88,2.17 -8.76,1.29 0,0.14 -0.08,0.27 -0.13,0.4 a 3.92,3.92 0 0 0 -2,-0.59 c -1.71,-0.08 -3.1,-1.32 -4.34,-2.49 l -3.81,-3.59 a 4.21,4.21 0 0 1 -0.66,-0.74 5.19,5.19 0 0 1 -0.46,-1.23 c -0.64,-2.07 -2.19,-3.72 -3.69,-5.29 a 2.5,2.5 0 0 0 -1.09,-0.79 1.68,1.68 0 0 0 -0.5,0 4.39,4.39 0 0 0 -0.33,-0.4 9.41,9.41 0 0 0 -0.83,-0.84 c -1.82,-1.68 -2,-3.12 -3.58,-5 a 48.05,48.05 0 0 1 -3.74,-5.65 c -0.13,-1.05 -0.31,-2.13 -0.53,-3.22 a 41.43,41.43 0 0 0 -2.19,-7.3 l -2,-4.43 -0.23,0.23 c -1.45,-2.16 -3,-3.34 -4.39,-3.06 -2.33,0.48 -3.48,5 -3.11,10.91 l 0.8,6 c 0,0.15 0.07,0.3 0.11,0.45 a 11.07,11.07 0 0 0 -0.22,2.16 c 0,0.84 0.78,1.46 1.19,2.21 a 6.25,6.25 0 0 1 1,3.41 c -0.05,0.43 -0.18,0.84 -0.2,1.26 a 4.85,4.85 0 0 0 0.94,2.6 l 5,8.4 1,1.76 0.06,0.08 a 4.27,4.27 0 0 0 1.34,1.54 18.32,18.32 0 0 0 1.65,6.07 c 0.17,0.38 0.36,0.74 0.56,1.1 a 35.37,35.37 0 0 0 4.72,6.13 l 2.38,2.67 c 2.35,2.62 4.7,5.25 7.25,7.67 a 9.71,9.71 0 0 0 3.24,2.27 3.67,3.67 0 0 0 3.64,-0.53 c 0,1.24 0,2.48 0,3.72 a 2.09,2.09 0 0 1 1.58,3.29 c -2.1,5.39 -4.22,10.83 -7.4,15.66 a 33.33,33.33 0 0 1 6.2,4.73 27.88,27.88 0 0 1 3.23,4.37 c 0.09,0.74 0.16,1.47 0.2,2.2 0.74,11.92 -3.87,23.75 -8,35.11 -1.19,3.22 -2.49,6.59 -2.39,9.94 a 19.51,19.51 0 0 0 -2.24,1.61 c 0.82,2.14 0.5,4.05 0.41,6.34 a 11.23,11.23 0 0 1 -0.83,4 28.12,28.12 0 0 1 -1.44,2.57 c -2.59,4.57 -3.16,10 -3.68,15.22 -0.31,3.15 0.91,7 -0.52,9.82 -2.47,4.84 -4.66,10 -5,15.38 a 15.42,15.42 0 0 1 -0.46,3.59 c -0.31,1 -0.86,1.85 -1.14,2.83 a 12.11,12.11 0 0 0 -0.2,4 38.28,38.28 0 0 1 -2.1,14.11 c -1.25,3.57 -2.63,7.39 -1.65,11.06 a 15.59,15.59 0 0 0 -4.23,9.29 14.65,14.65 0 0 1 -0.32,2.65 12.89,12.89 0 0 1 -1.2,2.55 22.32,22.32 0 0 0 -2.72,12 c -3,4.07 -4.5,9.09 -5.39,14.08 -0.89,4.99 -1.28,10.07 -2.42,15 -1.52,6.52 -4.27,13.11 -4.81,19.79 -3.24,2.07 -4.64,6.08 -5.26,9.87 -0.62,3.79 -0.72,7.77 -2.31,11.27 -0.82,1.82 -2,3.45 -2.78,5.31 a 24.38,24.38 0 0 0 -1.2,4.57 c -0.48,2.44 -0.9,5.16 -0.31,7.5 a 11.31,11.31 0 0 1 -2.93,2.23 c 0.16,-0.62 0.29,-1.24 0.4,-1.87 -2.58,2.34 -7.26,1.52 -9.32,4.33 a 4.22,4.22 0 0 0 1,5.79 8,8 0 0 0 2.07,0.89 c 5,1.6 10.14,3.21 15.28,2.36 a 4.56,4.56 0 0 0 1.73,-0.55 5.57,5.57 0 0 0 1.61,-1.86 c 0.77,-1.22 1.54,-2.44 2.3,-3.66 a 47.51,47.51 0 0 0 5.61,1.31 c 0.19,1.6 0.33,3.2 0.4,4.8 1,0.2 2.34,0.26 2.81,-0.67 a 2.43,2.43 0 0 0 0.17,-1.11 c 0,-0.71 0.1,-1.65 0.16,-2.61 h 0.2 a 19,19 0 0 0 8.85,-1.79 c -1.07,-8.86 2.46,-17.52 5.52,-25.9 3.23,-8.82 6,-17.8 8.79,-26.78 2,-6.32 4.21,-12.44 6.17,-18.77 q 3.7,-12 7.43,-24 c 1.08,-3.52 2.17,-7 3.41,-10.5 a 163.57,163.57 0 0 1 9.27,-20.63 c 1,-1.89 2,-3.76 2.82,-5.72 1,-2.39 1.71,-4.89 2.51,-7.36 a 114,114 0 0 1 6.28,-14.78 c 0.07,-0.13 0.12,-0.25 0.19,-0.37 0.81,3.31 1.62,6.67 2.16,10 a 38,38 0 0 1 0.17,12.36 c -0.48,2.79 -1.39,5.55 -1.28,8.38 0.15,3.91 2.24,7.46 3.27,11.23 a 42.74,42.74 0 0 1 1.12,8.6 c 0.28,4.5 2.72,9.55 1,13.72 -5.35,13.21 -2.76,28.13 -5.81,42 -1.57,7.12 -6.38,13.81 -6,21.09 q 0.4,7.75 1.36,15.46 a 14.71,14.71 0 0 0 1.25,4.69 17.22,17.22 0 0 0 1.37,2.24 c -0.44,0.17 -0.81,0.62 -1.13,1.57 -0.82,2.5 0,5.6 2.22,7 a 9.72,9.72 0 0 0 2.89,1 15.22,15.22 0 0 0 4.18,0.58 9.76,9.76 0 0 0 1.31,-0.16 47.64,47.64 0 0 0 4.73,1.7 c 0,0.41 0.08,0.82 0.13,1.23 a 1.53,1.53 0 0 0 0.52,1.13 1.56,1.56 0 0 0 0.8,0.14 h 5.43 c 0,-0.45 0,-0.91 0,-1.36 a 4.47,4.47 0 0 0 3.45,-1.12 5.34,5.34 0 0 0 1,-2.08 q 2.22,-7.53 4.41,-15.07 a 48.18,48.18 0 0 0 2.15,-17.2 c -1.93,-18.43 2.31,-36.92 0.93,-55.4 a 132.71,132.71 0 0 1 1.7,-33.24 c 0.45,-2.48 1,-5 1.2,-7.47 0.44,-4.66 -0.1,-9.37 0.23,-14 0.11,-1.62 0.33,-3.23 0.53,-4.84 a 232.43,232.43 0 0 0 2.15,-30.15 95,95 0 0 0 -0.62,-10 5.71,5.71 0 0 0 2.73,-1.6 c 0.89,-1.16 0.66,-2.79 0.65,-4.27 0,-3.54 1.49,-6.88 2.69,-10.22 a 121.44,121.44 0 0 0 3.78,-14.06 49.09,49.09 0 0 0 1.68,-11.75 q 0,-0.6 -0.06,-1.2 a 3.1,3.1 0 0 0 0.92,-1 5.81,5.81 0 0 0 0.48,-1.85 c 0.36,-2.55 0.73,-5.11 1.09,-7.67 q 0.4,-2.75 0.79,-5.49 l 3.18,-22.19 c 0.27,-1.93 0.55,-3.85 0.82,-5.77 l 0.83,-5.74 c 0.09,-0.68 0.19,-1.36 0.26,-2 2.44,-4.08 0.11,-9.52 -0.15,-14.16 z m -26.53,83.08 c -1.18,-2.8 -2.28,-5.67 -2,-8.69 h -0.11 a 4.46,4.46 0 0 0 -0.13,-2.82 c -0.31,-0.73 -0.85,-1.35 -1.18,-2.08 a 7.62,7.62 0 0 1 -0.54,-2.8 76.33,76.33 0 0 1 1.43,-18.14 c 0.13,-0.7 0.27,-1.41 0.4,-2.11 a 5.22,5.22 0 0 0 1.14,-0.89 8.11,8.11 0 0 0 1.29,-2 c 1.13,-2.27 2.16,-4.58 3.11,-6.93 0.31,-0.76 0.76,-1.64 1.53,-1.83 -0.16,5.85 0.44,11.82 -1.94,17.1 a 10.82,10.82 0 0 0 -1,2.7 c -0.22,1.49 0.4,3 0.18,4.48 -0.11,0.77 -0.44,1.48 -0.57,2.24 a 2.19,2.19 0 0 0 0.58,2.12 1.75,1.75 0 0 0 0.43,0.22 c -0.06,0.4 -0.11,0.81 -0.15,1.2 -0.08,0.82 -0.12,1.59 -0.17,2.07 a 64.5,64.5 0 0 0 -0.27,7.36 c 0,2.65 0.1,5.3 0.06,8 a 5.43,5.43 0 0 1 -0.38,2.27 3.94,3.94 0 0 1 -0.76,1 c -0.29,-0.9 -0.61,-1.69 -0.95,-2.47 z"
     fill="url(#b7f84a8b-804f-4004-8d61-2f9b427d4893)"
     id="path133"
     style="fill:url(#b7f84a8b-804f-4004-8d61-2f9b427d4893)" />
  <ellipse
     cx="652.30756"
     cy="511.59961"
     rx="5.6399999"
     ry="15.97"
     transform="rotate(-11.58)"
     fill="#fbbebe"
     id="ellipse135" />
  <path
     d="m 791.53,707.31 c -0.82,2.48 0,5.58 2.22,6.93 a 9.88,9.88 0 0 0 2.87,1 15.14,15.14 0 0 0 4.17,0.57 c 1.73,-0.08 3.39,-0.76 5.12,-1 a 0.8,0.8 0 0 1 0.59,0.08 0.85,0.85 0 0 1 0.22,0.7 26.43,26.43 0 0 0 0.22,2.94 1.51,1.51 0 0 0 0.52,1.13 1.56,1.56 0 0 0 0.8,0.14 h 5.42 a 52.86,52.86 0 0 0 -1.55,-14.14 3.16,3.16 0 0 0 -0.4,-1 3.31,3.31 0 0 0 -1.73,-1 9.67,9.67 0 0 0 -4.19,-0.73 c -1.75,0.23 -3.21,1.36 -4.7,2.3 -1.49,0.94 -3.52,1.77 -5.33,1.29 -1.81,-0.48 -3.32,-1.99 -4.25,0.79 z"
     fill="#3f3d56"
     id="path137" />
  <path
     d="m 711.95,702.92 a 15,15 0 0 1 -5.47,3.72 l -0.92,0.44 a 0.64,0.64 0 0 0 -0.31,0.25 0.54,0.54 0 0 0 0.1,0.45 6.47,6.47 0 0 0 7.34,2.67 3.89,3.89 0 0 0 1.61,-0.84 5.28,5.28 0 0 0 1.24,-3.22 6.59,6.59 0 0 0 -0.15,-3.69 c -1.39,-3.13 -1.9,-1.71 -3.44,0.22 z"
     fill="#fbbebe"
     id="path139" />
  <path
     d="m 732.73,715.24 a 2.43,2.43 0 0 1 -0.17,1.11 c -0.47,0.92 -1.78,0.87 -2.8,0.67 a 67.3,67.3 0 0 0 -1.23,-10.1 c -1.94,-0.09 -3.34,1.75 -4.38,3.4 l -2.68,4.25 a 5.54,5.54 0 0 1 -1.6,1.86 4.74,4.74 0 0 1 -1.73,0.55 c -5.12,0.85 -10.29,-0.76 -15.23,-2.36 a 8.07,8.07 0 0 1 -2.07,-0.88 4.23,4.23 0 0 1 -1,-5.78 c 2.07,-2.8 6.72,-2 9.3,-4.32 a 23.28,23.28 0 0 1 -1.32,4.77 c 3.45,-0.52 5.77,-3.68 8.55,-5.79 a 5.26,5.26 0 0 1 2.44,-1.16 5.37,5.37 0 0 1 2,0.21 23.46,23.46 0 0 1 8.8,4.33 c 1.05,0.83 2.69,2 3.15,3.28 0.49,1.53 -0.03,4.33 -0.03,5.96 z"
     fill="#3f3d56"
     id="path141" />
  <circle
     cx="801.51996"
     cy="364.63998"
     r="20.66"
     fill="#fbbebe"
     id="circle143" />
  <path
     d="m 842.22,486.62 a 49,49 0 0 1 -1.67,11.69 120.64,120.64 0 0 1 -3.78,14 c -1.19,3.33 -2.68,6.67 -2.67,10.2 0,1.47 0.24,3.1 -0.66,4.26 a 6.22,6.22 0 0 1 -2.92,1.67 3.65,3.65 0 0 0 -2.46,2.19 15.45,15.45 0 0 1 -2.08,-4.58 q -2.69,-8.24 -5,-16.57 a 2.15,2.15 0 0 1 0.14,-2 2.48,2.48 0 0 1 0.87,-0.49 9,9 0 0 0 2.77,-1.78 4.05,4.05 0 0 0 0.92,-1.19 5.39,5.39 0 0 0 0.39,-2.26 c 0,-2.65 0,-5.29 -0.07,-7.94 a 66.34,66.34 0 0 1 0.28,-7.33 c 0,-0.48 0.09,-1.25 0.17,-2.07 0.15,-1.57 0.45,-3.39 1.3,-4 1.27,-0.85 5.07,0.29 6.51,0.49 2.48,0.34 5,0.74 7.42,1.21 a 19.81,19.81 0 0 1 0.54,4.5 z"
     fill="#3f3d56"
     id="path145" />
  <path
     d="m 758.8,387.77 c -0.8,1.6 -2.72,2.37 -4.2,3.38 l -5.07,3.48 a 3.38,3.38 0 0 1 -2.51,0.86 3.3,3.3 0 0 1 -1.87,-1.75 0.35,0.35 0 0 0 0,-0.08 l -1.05,-1.76 -5,-8.38 a 4.77,4.77 0 0 1 -0.93,-2.58 c 0,-0.43 0.15,-0.83 0.19,-1.26 a 6.05,6.05 0 0 0 -1,-3.4 c -0.4,-0.75 -1.2,-1.37 -1.18,-2.21 a 8,8 0 0 1 0.56,-3.23 6.54,6.54 0 0 1 2.19,-2.34 c 0.47,-0.34 0.95,-0.66 1.45,-1 a 2.86,2.86 0 0 1 0.87,-0.4 c 0.83,-0.17 1.65,0.52 2.49,0.55 3.61,2.42 5,7 7.84,10.3 1.6,1.88 1.76,3.32 3.57,5 0.29,0.26 0.57,0.54 0.84,0.83 a 5.81,5.81 0 0 1 0.9,1.3 c 0.33,0.86 2.32,1.87 1.91,2.69 z"
     fill="#3f3d56"
     id="path147" />
  <path
     d="m 794.26,385.31 c 1.49,3.15 2.65,6.61 2.22,10.07 a 6.29,6.29 0 0 1 -0.87,2.65 c -1.44,2.21 -4.46,2.61 -7.09,2.74 a 4.18,4.18 0 0 0 -3.08,1 2.8,2.8 0 0 0 0.19,3.42 7.72,7.72 0 0 0 3.06,2 c 4.16,1.83 8.65,3.34 13.17,2.92 2.1,-0.2 4.14,-0.81 6.23,-1.12 a 65.41,65.41 0 0 1 6.86,-0.38 c 2.72,-0.1 5.43,-0.37 8.14,-0.64 l 7.18,-0.71 a 1.6,1.6 0 0 0 1.07,-0.39 c 0.53,-0.62 -0.15,-1.53 -0.81,-2 -3.81,-2.82 -8.66,-4.76 -10.83,-9 -1,-2 -1.31,-4.38 -2.05,-6.54 -0.74,-2.16 -1.92,-4.11 -2.38,-6.31 a 41.81,41.81 0 0 1 -0.33,-5.82 7.81,7.81 0 0 0 -2,-5.32 c -1.43,-1.33 -3.5,-1.67 -5.44,-1.75 -4.78,-0.21 -9.87,0.93 -13.26,4.3 -0.91,0.91 -1.69,2 -2.63,2.82 -0.94,0.82 -2.22,1.06 -1.6,2.14 0.62,1.08 1.84,1.75 2.5,2.7 a 23,23 0 0 1 1.75,3.22 z"
     fill="#fbbebe"
     id="path149" />
  <path
     d="m 834.99,414.4 a 113.62,113.62 0 0 1 -6.12,22.53 84.86,84.86 0 0 0 -3.6,10.1 c -0.77,3.1 -0.62,6.42 -1.33,9.53 -0.88,3.87 -1.76,7.75 -2.47,11.65 a 76.39,76.39 0 0 0 -1.42,18.1 7.57,7.57 0 0 0 0.54,2.79 c 0.33,0.72 0.86,1.34 1.17,2.08 a 5,5 0 0 1 -0.28,4 11.58,11.58 0 0 1 -2.06,3.12 c -9.32,2.78 -19.29,1.87 -29,2.46 -8.95,0.54 -18,2.38 -26.82,0.85 -1,-4 0.67,-8.19 2.1,-12.09 4.15,-11.33 8.74,-23.13 8,-35 a 36.26,36.26 0 0 0 -0.47,-4.13 c -1.45,-8.41 0.13,-17.12 2.66,-25.27 1.57,-5.08 1.5,-10.49 1.14,-15.78 a 28.82,28.82 0 0 1 -0.07,-5.17 9.09,9.09 0 0 1 1.88,-4.83 c 0,-0.07 0.09,-0.14 0.14,-0.21 0.05,-0.07 0.44,-0.06 0.75,0 v 0 a 0.64,0.64 0 0 0 0.5,0 l 0.11,-0.07 a 0.25,0.25 0 0 1 0.29,0 c 0.23,0.14 0.36,0.62 0.86,0.71 a 19.92,19.92 0 0 0 2.23,0.21 12,12 0 0 1 2.66,0.38 h 0.12 a 7.81,7.81 0 0 0 3.88,-0.33 10.31,10.31 0 0 0 2.38,-0.92 c 0.22,-0.24 1.6,-0.46 1.88,-0.63 0.91,-0.55 0.71,-3.13 0.9,-4.19 a 11.52,11.52 0 0 1 0.75,-3.1 5.28,5.28 0 0 1 4.28,-2.49 22.79,22.79 0 0 1 5.13,0.46 c 3.73,0.53 7.55,0.44 11.21,1.3 1.84,0.43 3.85,1.08 5.54,0.24 0.46,0.11 0.53,0.51 0.53,1 a 6.41,6.41 0 0 1 -0.28,1.37 c -0.64,2.76 1.53,5.3 3.53,7.3 a 11.32,11.32 0 0 0 2.95,2.35 c 1,0.46 2,0.65 3,1.15 a 5.46,5.46 0 0 1 2,1.83 7.64,7.64 0 0 1 1.14,2.91 17.4,17.4 0 0 1 -0.33,5.79 z"
     fill="#3f3d56"
     id="path151" />
  <path
     d="m 834.99,414.4 a 113.62,113.62 0 0 1 -6.12,22.53 84.86,84.86 0 0 0 -3.6,10.1 c -0.77,3.1 -0.62,6.42 -1.33,9.53 -0.88,3.87 -1.76,7.75 -2.47,11.65 -0.21,0.12 -0.43,0.23 -0.65,0.33 a 15.35,15.35 0 0 1 -3.92,1.26 24,24 0 0 1 -7.32,-0.24 l -14.27,-1.91 c -5.7,-0.77 -11.77,-1.7 -16,-5.56 -2.35,-2.12 -3.89,-4.92 -5.58,-7.62 a 36.26,36.26 0 0 0 -0.47,-4.13 c -1.45,-8.41 0.13,-17.12 2.66,-25.27 1.57,-5.08 1.5,-10.49 1.14,-15.78 a 28.82,28.82 0 0 1 -0.07,-5.17 9.09,9.09 0 0 1 1.88,-4.83 7.11,7.11 0 0 1 0.89,-0.2 v 0 a 4.44,4.44 0 0 1 0.61,-0.08 h 0.29 a 4.36,4.36 0 0 1 1,0.12 18.09,18.09 0 0 1 2,0.77 h 0.12 a 7.66,7.66 0 0 0 2.66,0.38 c 1.32,0 2.68,-0.21 4,-0.3 a 7.38,7.38 0 0 1 4.74,0.85 28.43,28.43 0 0 1 2.64,2.41 11.34,11.34 0 0 0 3.33,1.81 35.39,35.39 0 0 0 26.62,-0.56 5.21,5.21 0 0 1 2.67,-0.68 5,5 0 0 1 1.92,0.82 c 0.6,0.35 1.19,0.69 1.8,1 a 7.64,7.64 0 0 1 1.14,2.91 17.4,17.4 0 0 1 -0.31,5.86 z"
     opacity="0.1"
     id="path153" />
  <path
     d="m 843.7,407.78 a 53.37,53.37 0 0 1 -11.4,-5 5.11,5.11 0 0 0 -1.92,-0.82 5.37,5.37 0 0 0 -2.68,0.68 35.37,35.37 0 0 1 -26.61,0.56 11.57,11.57 0 0 1 -3.33,-1.81 29.9,29.9 0 0 0 -2.64,-2.41 c -3.29,-2.13 -7.84,0.37 -11.52,-1 a 20.41,20.41 0 0 0 -2,-0.77 c -2.91,-0.73 -5.87,2.17 -8.73,1.29 a 48.65,48.65 0 0 0 -2.35,8.92 97.23,97.23 0 0 0 -0.65,10.52 c 0,2.11 -0.1,4.22 0,6.33 a 2.58,2.58 0 0 1 1.74,1.13 2.56,2.56 0 0 1 -0.16,2.15 c -2.09,5.37 -4.21,10.8 -7.38,15.61 a 33.92,33.92 0 0 1 6.18,4.72 c 3.5,3.7 5.22,8.89 9,12.31 4.26,3.85 10.33,4.79 16,5.55 l 14.27,1.91 a 24.39,24.39 0 0 0 7.33,0.25 15.43,15.43 0 0 0 3.91,-1.27 7,7 0 0 0 2.18,-1.44 8,8 0 0 0 1.29,-2 c 1.13,-2.26 2.16,-4.57 3.11,-6.91 0.33,-0.83 0.83,-1.8 1.73,-1.87 5.3,-4.78 10.3,-9.68 15.6,-14.46 a 34.57,34.57 0 0 0 5.69,-6 c 2.63,-3.89 0.24,-9.4 0,-14.1 a 17.8,17.8 0 0 0 -0.45,-3.57 c -0.86,-3.41 -2.88,-7.49 -6.21,-8.5 z"
     fill="#f9a826"
     id="path155" />
  <path
     d="m 758.8,387.77 c -0.8,1.6 -2.72,2.37 -4.2,3.38 l -5.07,3.48 a 3.38,3.38 0 0 1 -2.51,0.86 3.3,3.3 0 0 1 -1.87,-1.75 c 0,-0.23 0,-0.48 0,-0.72 a 6.71,6.71 0 0 1 0.32,-2.39 7.45,7.45 0 0 1 2.24,-2.88 18.34,18.34 0 0 1 6.57,-4 2.25,2.25 0 0 1 1.2,-0.12 1.58,1.58 0 0 1 0.44,0.19 5.81,5.81 0 0 1 0.9,1.3 c 0.4,0.82 2.39,1.83 1.98,2.65 z"
     opacity="0.1"
     id="path157" />
  <path
     d="m 770.74,398.31 c -1.7,-0.08 -3.09,-1.31 -4.33,-2.48 l -3.79,-3.52 a 3.54,3.54 0 0 1 -0.66,-0.74 5.19,5.19 0 0 1 -0.46,-1.23 14.11,14.11 0 0 0 -3.68,-5.28 2.4,2.4 0 0 0 -1.09,-0.78 2.19,2.19 0 0 0 -1.21,0.12 18.29,18.29 0 0 0 -6.57,4 7.47,7.47 0 0 0 -2.24,2.88 6.65,6.65 0 0 0 -0.32,2.39 18.36,18.36 0 0 0 1.74,7.64 c 0.17,0.37 0.36,0.74 0.56,1.1 a 34.63,34.63 0 0 0 4.7,6.11 l 2.38,2.66 c 2.34,2.62 4.68,5.24 7.22,7.65 a 9.54,9.54 0 0 0 3.24,2.26 3.62,3.62 0 0 0 3.72,-0.6 5.38,5.38 0 0 0 1.06,-1.9 c 1.54,-4 3,-8.16 3.09,-12.47 a 47.06,47.06 0 0 0 -0.22,-5.17 c -0.15,-1.82 -1.44,-2.53 -3.14,-2.64 z"
     fill="#f9a826"
     id="path159" />
  <path
     d="m 831.34,538.31 a 231.07,231.07 0 0 1 -2.14,30.07 c -0.2,1.61 -0.42,3.22 -0.53,4.83 -0.33,4.67 0.21,9.36 -0.23,14 -0.23,2.51 -0.75,5 -1.19,7.45 a 132.47,132.47 0 0 0 -1.7,33.15 c 1.38,18.43 -2.85,36.87 -0.93,55.25 a 44.66,44.66 0 0 1 -0.59,10.69 45.3,45.3 0 0 1 -1.55,6.46 q -2.19,7.51 -4.4,15 a 5.2,5.2 0 0 1 -1,2.08 4.74,4.74 0 0 1 -3.75,1.11 c -5.77,-0.18 -11.2,-2.67 -16.44,-5.1 a 5.73,5.73 0 0 1 -1.65,-1 c -1.09,-1.13 -1,-2.91 -1.48,-4.4 -0.48,-1.49 -1.78,-2.89 -2.52,-4.42 a 14.43,14.43 0 0 1 -1.09,-4.55 q -1,-7.68 -1.36,-15.42 c -0.38,-7.26 4.42,-13.94 6,-21 3,-13.88 0.46,-28.76 5.79,-41.93 1.68,-4.16 -0.76,-9.2 -1,-13.68 a 43.37,43.37 0 0 0 -1.12,-8.58 c -1,-3.76 -3.11,-7.3 -3.26,-11.2 -0.11,-2.82 0.8,-5.57 1.27,-8.35 a 37.53,37.53 0 0 0 -0.17,-12.33 c -0.53,-3.36 -1.34,-6.72 -2.15,-10 l -0.18,0.37 a 113,113 0 0 0 -6.27,14.75 c -0.8,2.45 -1.5,4.95 -2.5,7.33 -0.82,2 -1.83,3.83 -2.82,5.71 a 164,164 0 0 0 -9.25,20.55 c -1.24,3.46 -2.33,7 -3.41,10.47 l -7.41,24 c -2,6.31 -4.19,12.41 -6.15,18.71 -2.77,9 -5.54,17.92 -8.76,26.72 -3,8.35 -6.57,17 -5.5,25.82 a 19,19 0 0 1 -8.83,1.79 51.7,51.7 0 0 1 -15,-3.64 c -1.91,-0.71 -3.89,-1.51 -5.18,-3.08 -2.22,-2.71 -1.67,-6.68 -1,-10.13 a 24.49,24.49 0 0 1 1.2,-4.56 c 0.76,-1.84 2,-3.47 2.78,-5.29 1.57,-3.49 1.67,-7.44 2.29,-11.23 0.62,-3.79 2,-7.79 5.24,-9.85 0.55,-6.66 3.29,-13.23 4.8,-19.74 1.14,-4.93 1.52,-10 2.42,-15 0.9,-5 2.35,-10 5.37,-14.05 a 22.27,22.27 0 0 1 2.72,-12 13.12,13.12 0 0 0 1.19,-2.55 14.65,14.65 0 0 0 0.32,-2.64 15.61,15.61 0 0 1 4.22,-9.27 c -1,-3.65 0.39,-7.46 1.64,-11 a 38.22,38.22 0 0 0 2.1,-14.07 12.33,12.33 0 0 1 0.19,-4 c 0.28,-1 0.83,-1.85 1.15,-2.81 a 16,16 0 0 0 0.45,-3.59 c 0.39,-5.41 2.58,-10.51 5,-15.34 1.44,-2.82 0.22,-6.65 0.52,-9.79 0.52,-5.22 1.09,-10.62 3.68,-15.17 0.48,-0.86 1,-1.68 1.43,-2.57 a 11.13,11.13 0 0 0 0.83,-4 c 0.09,-2.29 0.41,-4.19 -0.41,-6.32 5.35,-4.45 12.65,-5.7 19.61,-6 6.96,-0.3 14,0.33 20.81,-1.15 2,-0.45 4,-1.07 6.11,-1.37 4.79,-0.7 9.65,0.39 14.38,1.47 -0.33,3 0.77,5.88 2,8.67 a 93.07,93.07 0 0 1 7.41,35.72 z"
     fill="#33313f"
     id="path161" />
  <path
     d="m 807.79,540.6 -11.49,25.84 c -0.53,-3.36 -1.34,-6.72 -2.15,-10 l -0.18,0.37 v -0.54 l 6.26,-13.77 z"
     opacity="0.1"
     id="path163" />
  <path
     d="m 842.22,486.62 a 4.32,4.32 0 0 1 -2.28,0.85 11.09,11.09 0 0 1 -3.74,-0.51 l -9,-2.25 a 4.42,4.42 0 0 1 -0.82,-0.29 c 0.15,-1.57 0.45,-3.39 1.3,-4 1.27,-0.85 5.07,0.29 6.51,0.49 2.48,0.34 5,0.74 7.42,1.21 a 19.81,19.81 0 0 1 0.61,4.5 z"
     opacity="0.1"
     id="path165" />
  <path
     d="m 849.83,427.12 c 0.19,0.83 0.46,1.65 0.62,2.49 a 19,19 0 0 1 -0.21,6.19 l -0.82,5.72 -0.82,5.75 -3.17,22.13 -0.78,5.48 -1.1,7.65 a 5.5,5.5 0 0 1 -0.48,1.84 3.83,3.83 0 0 1 -3.13,1.85 11.34,11.34 0 0 1 -3.74,-0.51 l -9,-2.26 a 2.82,2.82 0 0 1 -1.1,-0.45 2.17,2.17 0 0 1 -0.58,-2.11 c 0.13,-0.76 0.46,-1.47 0.57,-2.23 0.22,-1.48 -0.4,-3 -0.18,-4.47 a 11.12,11.12 0 0 1 1,-2.69 c 3,-6.63 1.26,-14.37 2.28,-21.57 a 32.7,32.7 0 0 1 6.94,-15.44 44.32,44.32 0 0 1 7.66,-7.52 c 1.12,-0.87 2.9,-2.66 4.31,-3 1.81,-0.38 1.43,1.89 1.73,3.15 z"
     fill="#f9a826"
     id="path167" />
  <path
     d="m 781.72,340.98 c -0.66,2.1 0.37,4.41 -0.1,6.55 -0.51,2.36 -2.73,4 -3.36,6.37 -1,3.61 2.06,6.9 4.3,9.9 8.3,11.14 7.21,26.56 4.37,40.15 a 207.31,207.31 0 0 1 -9.45,32 c -1.25,3.23 -2.63,6.51 -5.09,8.93 4.6,-1.32 9.49,-2.65 14.1,-1.37 5.84,1.62 10.88,7.29 16.8,6 3.56,-0.79 6.06,-3.95 9.26,-5.7 6,-3.23 13.23,-1.2 19.92,-0.16 a 7.82,7.82 0 0 0 4.35,-0.22 7.23,7.23 0 0 0 2.64,-2.43 24.66,24.66 0 0 0 5.14,-13.3 17.06,17.06 0 0 0 -4.91,-13.13 c -1.42,-1.34 -3.12,-2.42 -4.21,-4 a 12.42,12.42 0 0 1 -1.65,-6.06 c -0.79,-11 1.89,-22.23 -0.87,-32.87 -1,-3.79 -2.63,-7.42 -3.07,-11.3 -0.55,-4.83 0.76,-10 -1.16,-14.42 -1.51,-3.51 -4.84,-6 -8.43,-7.28 -3.59,-1.28 -7.43,-1.64 -11.24,-2 -5.48,-0.46 -25.05,-2.81 -27.34,4.34 z"
     fill="#33313f"
     id="path169" />
  <g
     opacity="0.1"
     id="g177"
     transform="translate(-69.96,-85.23)">
    <path
       d="m 873.8,536.64 a 206.9,206.9 0 0 1 -9.4,31.87 c 0.69,-1.37 1.27,-2.81 1.82,-4.24 a 206.21,206.21 0 0 0 9.45,-32 c 2.85,-13.6 3.94,-29 -4.36,-40.15 -2,-2.66 -4.57,-5.54 -4.48,-8.66 a 10.66,10.66 0 0 0 -1.7,3.14 c -1,3.61 2.06,6.9 4.3,9.9 8.3,11.13 7.21,26.55 4.37,40.14 z"
       transform="translate(-16.91,-47.46)"
       id="path171" />
    <path
       d="m 868.61,479.21 a 9.73,9.73 0 0 0 1.76,-3.37 17.13,17.13 0 0 0 -0.12,-4.46 4.81,4.81 0 0 0 -1.66,2.29 c -0.59,1.77 0.09,3.69 0.02,5.54 z"
       transform="translate(-16.91,-47.46)"
       id="path173" />
    <path
       d="m 928.21,569.29 a 7.2,7.2 0 0 1 -2.64,2.42 7.64,7.64 0 0 1 -4.35,0.22 c -6.69,-1 -14,-3.06 -19.92,0.17 -3.21,1.74 -5.7,4.9 -9.27,5.7 -5.91,1.32 -10.95,-4.35 -16.79,-6 -4.14,-1.15 -8.5,-0.2 -12.67,1 a 17.47,17.47 0 0 1 -3.31,4.78 c 4.6,-1.32 9.49,-2.65 14.1,-1.37 5.84,1.62 10.88,7.29 16.8,6 3.56,-0.79 6.06,-3.95 9.26,-5.7 6,-3.23 13.23,-1.2 19.92,-0.16 a 7.82,7.82 0 0 0 4.35,-0.22 7.23,7.23 0 0 0 2.64,-2.43 26.88,26.88 0 0 0 4.14,-7.92 29.08,29.08 0 0 1 -2.26,3.51 z"
       transform="translate(-16.91,-47.46)"
       id="path175" />
  </g>
</svg>
